<?xml version="1.0" encoding="utf-8"?>
<!-- Generator: Adobe Illustrator 18.0.0, SVG Export Plug-In . SVG Version: 6.00 Build 0)  -->
<!DOCTYPE svg PUBLIC "-//W3C//DTD SVG 1.1//EN" "http://www.w3.org/Graphics/SVG/1.1/DTD/svg11.dtd">
<svg version="1.1" id="Layer_1" xmlns="http://www.w3.org/2000/svg" xmlns:xlink="http://www.w3.org/1999/xlink" x="0px" y="0px"
	 viewBox="0 0 249.5 65.6" enable-background="new 0 0 249.5 65.6" xml:space="preserve">
<g>
	<g>
		<g>
			<path fill-rule="evenodd" clip-rule="evenodd" fill="#231F20" d="M44.6,19.4C44.1,19.6,43.9,19.3,44.6,19.4L44.6,19.4z"/>
			<path fill-rule="evenodd" clip-rule="evenodd" fill="#231F20" d="M15.2,20.4c0-0.1,0.2,0,0.3-0.1c0,0.1-0.1,0.1-0.1,0.2
				C15.3,20.5,15.3,20.3,15.2,20.4z"/>
			<path fill-rule="evenodd" clip-rule="evenodd" fill="#231F20" d="M44.5,21.7c0.1,0,0.2,0.4,0,0.4C44.5,22,44.5,21.8,44.5,21.7z"
				/>
			<path fill-rule="evenodd" clip-rule="evenodd" fill="#231F20" d="M12.2,22.6c0.1-0.1,0.6-0.1,0.5,0.1
				C12.5,22.7,12.4,22.6,12.2,22.6z"/>
			<path fill-rule="evenodd" clip-rule="evenodd" fill="#231F20" d="M47.3,22.8c0-0.2,0.7-0.2,0.5-0.1
				C47.6,22.7,47.6,22.8,47.3,22.8z"/>
			<path fill-rule="evenodd" clip-rule="evenodd" fill="#231F20" d="M16.8,23.7c0.1,0.1,0,0.2,0,0.3c-0.2,0,0-0.2-0.1-0.2
				C16.7,23.7,16.8,23.7,16.8,23.7z"/>
			<path fill-rule="evenodd" clip-rule="evenodd" fill="#231F20" d="M13.7,25.7c0.1,0.2-0.3,0.2-0.5,0.2
				C13.3,25.8,13.6,25.9,13.7,25.7z"/>
			<path fill-rule="evenodd" clip-rule="evenodd" fill="#231F20" d="M46.1,25.8c0.2-0.1,0.4,0.1,0.7,0.1
				C46.6,26.1,46.3,25.9,46.1,25.8z"/>
			<path fill-rule="evenodd" clip-rule="evenodd" fill="#231F20" d="M22.3,26C22.5,26.2,22.2,26.8,22.3,26L22.3,26z"/>
			<path fill-rule="evenodd" clip-rule="evenodd" fill="#231F20" d="M21.7,29.5c-0.1,0.1-0.1,0.2-0.2,0.3
				C21.4,29.8,21.5,29.5,21.7,29.5z"/>
			<path fill-rule="evenodd" clip-rule="evenodd" fill="#231F20" d="M38.5,29.9c0.3,0.2,0.2,0.4,0.4,0.5
				C38.7,30.6,38.6,30.1,38.5,29.9z"/>
			<path fill-rule="evenodd" clip-rule="evenodd" fill="#231F20" d="M16,32.5c0.1,0.1-0.1,0.3-0.3,0.4C15.8,32.6,16,32.6,16,32.5z"
				/>
			<path fill-rule="evenodd" clip-rule="evenodd" fill="#231F20" d="M45.6,16.3c1.9-0.1,3.1-1.5,4.2-2.5c0.6,0.1,0.6,0.9,0.4,1.5
				c-0.2,0.7-0.8,1.3-1.4,1.8c-0.6,0.6-1.4,0.8-1.9,1.2c1.6-0.3,3-0.7,4-1.7c-0.5,1.2-2.1,1.7-3.4,2.3c2,0.1,3.8-0.6,4.9-1.6
				c0.2,0.1,0.2,0.3,0.4,0.4c0.1,1.6-1.8,3-3.4,3.4c-0.5,0.1-1.1,0.1-1.6,0.1c-0.1-0.2-0.1-0.5-0.2-0.5c-0.1,0.2,0.1,0.6-0.1,0.9
				c0.2,0,0.6,0.1,0.5-0.1c1.7-0.1,3.8,0.1,4.9-0.6c-0.5,1.1-2.5,1.2-4.3,1.1c0.3,0.5,1.4,0.8,2.4,0.9c0.7,0.1,1.4-0.1,1.8-0.3
				c0.7,2.6-3.4,2.1-5.1,1.8c0.2,0.4,0.6,0.2,0.9,0.4c0.6,0.2,1.1,0.7,1.8,0.9c0.6,0.2,1.3,0.4,2.1,0.5c-2,0.4-3.9-0.7-5.2-1.7
				c1.1,1.7,2.9,2.7,5.4,2.8c-0.6,1.8-3.7,1-5,0.4c0.6,0.9,1.9,1.7,3,2.3c-1.5-0.2-2.6-1.2-3.7-2c0.4,0.8,1.1,1.6,1.8,2.2
				c0.7,0.6,1.5,1.3,2.4,1.7c0.3,0.1,0.7,0,1,0.4c0,0.1,0,0.1,0.1,0.1c-0.2,0.6-0.8,0.8-1.6,0.8c-2.2-0.2-3.8-2.1-5.2-3.2
				c0,0.5,0.5,0.6,0.7,0.9c1.1,1.4,2.2,3,3.6,4C48.6,34,47.3,32.3,46,31c0,0.6,0.5,1.1,0.8,1.7c0.9,1.4,2.1,3.2,3.6,4.1
				c0.4,0.2,0.9,0.2,1.2,0.6c-0.2,0.6-0.8,0.8-1.5,0.8c-2.2-0.2-4.1-2.3-5.3-3.7c-1.5-1.8-2.5-3.8-3.3-5.6c0.2,2.4,1.1,4.6,2.1,6.3
				c0.2,0.3,0.8,0.7,0.8,0.9c0,0.3-0.4,0.6-1.1,0.4c-0.3-0.1-1.2-0.8-1.5-1.1c-1.5-1.3-2.5-3.8-3.2-6c-0.1-0.4-0.2-0.6-0.6-1
				c-0.7,3.3-0.6,7.3-2.6,9.3c1,0.8,1.2,4,3.3,3.6c0.3-0.1,0.4-0.3,0.6-0.4c0.2,1.1-1.5,0.9-2.1,0.5c0.4,1,1.2,1.8,1.9,2.5
				c0.7,0.8,1.6,1.5,2.4,2.1c0.2-0.1-0.1-0.1-0.1-0.2c1,0.1,1.3-0.4,2.1-0.5c0.1,0.1,0.4,0,0.3,0.2c0.4-0.3,1.2-0.4,1.2,0.4
				c-0.2,0-0.6-0.3-1-0.1c-0.2,0.1,0.1,0.3-0.1,0.4c-0.6-0.2-1.1,0-1.8,0.1c0.1,0.5,1,0.2,1.5,0.2c0.2,0,0.3,0.1,0.4,0.2
				c0.7-0.3,1.5,0.4,1,0.9c-0.1-0.2-0.1-0.5-0.4-0.5c-0.3,0-0.6,0-0.8-0.1c-0.2,0.1,0.1,0.4-0.1,0.5c-0.4,0-0.4-0.4-0.7-0.5
				c-0.4,0-0.8,0-1.1-0.1c0.1,0.5,1.1,0.7,1.4,1.1c0.2,0.2-0.1,0.1-0.1,0.2c0.5,0.1,1.1,1.1,0.3,1.4c0.1-0.7-0.4-0.7-0.7-0.9
				c-0.2,0,0,0.4-0.2,0.4c-0.5-0.4-0.3-1-0.5-1.4c-0.4-0.5-1-0.3-1.5-0.6c-0.3-0.1-0.5-0.7-0.8-0.8c-0.7-0.2-1,0.8-1.5,0.5
				c-0.3-0.2,0-0.6-0.4-0.7c-0.4-0.1-0.6,0.2-0.8,0.2c-0.4-0.8,1.3-1.1,1.4-0.2c0.2-0.1,0-0.5,0.1-0.6c0.7,0,0.8,0.5,1.4,0.5
				c-0.3-0.7-1-1.1-1.5-1.6c-0.5-0.5-1.1-0.9-1.5-1.5c-0.6-0.2-1.4-0.3-1.6-0.8c-0.2,0.3-0.3,0.8-0.8,0.9c0.2-1.3,0-2.7-1.2-2.8
				c-0.2,2.2,0.3,5,2.5,5.1c-0.1,1-1.9,0.8-2.4,0c0,0.7,0.3,1.2,0.6,1.5c1.1,1.1,3.7,0,3.4,2.3c-0.2,0.1-0.3-0.3-0.5-0.4
				c-0.4-0.2-0.9-0.1-1.4-0.2c-0.9-0.1-1.5-0.7-2-1.1c0.3,1.1,1.5,3.2,3.1,3c0.4,0,0.6-0.4,0.8-0.2c0.6,0.8-0.6,1.5-1.5,1.2
				c1.4,2.1,5.4-0.9,2.7-2.2c0.9-0.9,2,0.6,2.1,1.4c0.3,2.6-3,3.6-4.9,2.3c0.7,1,0.1,3.6-1.6,2.7c0.6-0.3,0.7-1.1,0.3-1.7
				c-0.5-0.7-1.8-1.3-2-2.5c-0.2,1.7,0.3,3.7,0.9,4.9c-0.2,0.1-0.4,0.2-0.8,0.2c-0.1,0.8-1.6,1-1.7,0c-0.4,0-0.6-0.1-0.8-0.2
				c0.7-1.3,1-3,1.1-4.9c-0.4,0-0.3,0.4-0.4,0.7c-0.2,0.4-0.6,0.9-1,1.2c-0.4,0.4-1.1,0.7-0.9,1.7c0.1,0.3,0.3,0.4,0.6,0.6
				c-1.5,1-2.5-1.2-1.7-2.5c-1.4,0.7-3.2,0.9-4.3-0.4c-0.8-0.9-0.8-2.5,0.1-3.3c0.2-0.2,1-0.6,1.4-0.2c-0.2,0.3-0.5,0.3-0.6,0.5
				c-1.2,1.9,2.2,3.4,3.4,1.9c-0.9,0.2-2.2-0.4-1.5-1.4c1.5,1.2,3.4-1,3.8-2.5c-0.6,0.3-1.1,0.8-2,0.9c-0.8,0.1-1.5,0-1.9,0.7
				c-0.3-1.3,0.4-1.7,1.7-1.8c1.3-0.1,2.1-0.7,2.3-2.1c-0.3,0-0.6,0.5-1.1,0.6c-0.6,0.1-1.1-0.2-1.4-0.6c2.1-0.3,2.7-2.8,2.6-5.2
				c-1.2,0.1-1.5,1.6-1.2,2.8c-0.5,0.1-0.6-0.6-0.9-0.9c-0.1,0,0,0.4-0.1,0.4c-1.2,0.3-1.9,1.1-2.8,1.9c-0.6,0.5-1.2,1-1.6,1.6
				c0.5,0.2,1.2-0.8,1.6-0.2c0.6-0.4,1.6-0.1,1.3,0.7c-0.3-0.2-0.4-0.3-0.7-0.3c-0.6,0-0.4,0.8-0.9,0.8c-0.5,0-0.6-0.9-1.4-0.5
				c-0.3,0.2-0.2,0.4-0.5,0.6c-0.5,0.4-1.4,0.2-1.7,0.7c-0.3,0.5,0.1,1.2-0.6,1.5c-0.2,0.1-0.1-0.2-0.1-0.3
				c-0.4,0.1-0.8,0.2-0.7,0.8c-0.8-0.2-0.3-1.3,0.2-1.4c-0.2-0.6,0.9-0.7,1.2-1.2c-0.2-0.1-0.7,0-1-0.1c-0.2,0.1-0.1,0.5-0.4,0.5
				c-0.3,0.1-0.3-0.2-0.5-0.4c-0.5,0-0.9,0-0.9,0.5c-0.7-0.5,0.5-1.5,1-0.8c0.2-0.1,0-0.3,0.1-0.4c0.4-0.2,1.4,0.3,1.7-0.2
				c-0.5,0-1.1-0.5-1.7-0.1c-0.1-0.1-0.3-0.2-0.2-0.4c-0.4-0.2-0.9-0.1-1,0.1c-0.3-0.6,0.9-0.9,1.1-0.4c0.1-0.1,0.1-0.3,0.2-0.3
				c0.9,0.1,1.3,0.7,2.4,0.5c1.6-1.3,3.1-2.7,4.2-4.5c-0.4,0.1-1.6,0.7-2.1,0.2c-0.2-0.1-0.2-0.4-0.2-0.7c1,1.1,2.2-0.2,2.7-1.1
				c0.4-0.8,0.7-1.6,1.2-2.1c-2-1.9-2.6-5.3-3-8.8c-0.3,0.1-0.3,0.5-0.4,0.8c-0.2,0.5-0.2,1.2-0.5,1.8c-0.2,0.4-0.6,0.8-0.8,1.2
				c-0.5,0.8-0.9,1.7-1.5,2.4c-0.5,0.5-1.5,1.2-2,1.3c-0.6,0.1-0.8-0.2-0.8-0.4c-0.1-0.4,0.4-0.5,0.6-0.8c0.4-0.5,0.7-1.4,1.1-2.1
				c0.6-1.4,1.2-2.9,1.2-4.7c-0.3,0.1-0.1,0.4-0.2,0.8c-0.3,0.9-1,1.9-1.5,2.8c-1.1,1.8-2.3,3.4-4,4.7c-1.1,0.8-3.3,2.1-4.3,0.6
				c0.5-0.5,1.2-0.7,1.8-1.1c1.6-1.2,2.7-3.1,3.8-4.8c0-0.4,0.2-0.5,0.2-0.7c-1.4,1.4-2.6,3.1-4.4,4.1c1.5-1.3,2.8-2.8,4-4.5
				c-1.3,0.7-2.9,2.7-5,2.7c-0.7,0-1.3-0.2-1.4-0.8c0.2-0.3,0.6-0.3,0.9-0.4c1.5-0.5,2.4-1.7,3.6-2.7c0.2-0.5,0.7-0.7,0.8-1.2
				c-0.6,0.3-1.1,0.8-1.7,1.2c-0.6,0.4-1.3,0.7-2.1,0.9c1.2-0.6,2.2-1.4,3.1-2.3c-1.3,0.3-4.3,1.5-5-0.5c1.4,0,2.6-0.5,3.6-1.1
				c0.8-0.5,1.6-1.1,1.9-1.9c-1.2,1.1-2.9,2.1-5.2,1.8c1.5-0.4,3-0.8,4.1-1.6c-1.9,0.1-5,0.3-4.4-2.1c1.3,0.7,3.6,0.2,4.4-0.7
				c-1.7,0.3-3.8,0-4.6-0.9c1,0.3,2.8,0.6,4.4,0.4c-1-0.3-2.5-0.8-3.3-1.7c-0.5-0.5-1.3-1.5-0.5-2.2c1.2,1,2.8,1.6,5,1.7
				c-0.4-0.4-1.1-0.4-1.6-0.7c-0.8-0.4-1.5-0.9-2-1.7c1.1,0.9,2.5,1.4,4.1,1.7c-0.2-0.3-0.6-0.5-1-0.7c-0.9-0.5-2.1-1.6-2.3-2.7
				c-0.1-0.6-0.1-1.1,0.5-1.2c1.1,1.1,2.3,2.4,4.2,2.5c-1-0.3-2.2-2.1-1.1-3.1c-1,2.3,2.6,2.6,3.5,3.8c0.4,0.5,0.2,1.1-0.1,1.5
				c-0.6,0.6-1.5,1.1-1.7,2.1c-0.3,2.1,1.1,3.5,3.1,3.4c1.2-0.1,2.2-1.1,3.5-1c0.7,0.1,0.9,0.5,1.9,0.5c0.6-1.2,0.6-3.7,0-5
				c0-0.2,0.1-0.3,0.1-0.5c-0.8,0.4-1.9,0.6-2.7,1.1c0.2-0.9,1.1-1.2,1.8-1.7c-2.2-1-2.5,2.4-4.3,1.4c2.1,0,1.8-2.3,4.2-2
				c0.1-0.3-0.3-0.2-0.2-0.5c-0.5-0.3-1.2,0-1.8,0.2c-0.8,0.2-1.5,0.1-1.5,1.1c-1.1-0.7,0-2.1,0.9-2.2c0-0.1-0.4,0-0.4-0.1
				c0.4-1.9,3.7-0.9,4.1-2.7c0.6,0.3,0.1,0.9-0.2,1.2c0.7,0.1,1,0.5,1.5,0.8c0.4,0,0.6,0,0.9-0.1c-0.2,0.5-0.7,0.4-1.2,0.3
				c0.4,0.6,0.9,1,1.4,1.5c0.2,0,0.5,0.1,0.7-0.1c0.2,0.4-0.7,0.4-0.9,0.4c0.5,1.2,0.7,2.7,2,3.1c-0.7,0.4-1.2-0.4-1.6-0.7
				c0,1.5,0.8,2.8,1.8,3.4c-0.4,0.1-0.7,0.1-1.1,0c-0.2,0.3,0.1,0.7,0.2,0.8c1-0.4,1.5-0.1,2.6,0.1c0.2-0.3,0.3-0.6,0.4-0.9
				c-0.3-0.1-0.8,0.2-1.2,0c1.2-0.6,1.6-1.9,2-3.4c-0.6,0.2-0.9,1-1.8,0.8c1.2-0.5,1.6-1.8,2-3.2c-0.3,0-0.8,0-1-0.4
				c1.1,0.2,1.4-1,2.1-1.4c-0.4-0.1-1.2,0.1-1.2-0.5c1,0.7,1.4-0.7,2.4-0.6c-0.2-0.3-0.7-0.8-0.2-1.2c0.5,1.8,3.7,0.9,4.2,2.7
				c0.1,0.2-0.2,0.1-0.4,0.1c0.6,0.4,1.4,0.7,1.3,1.6c0,0.3-0.2,0.4-0.4,0.7c-0.1-0.8-0.5-1-1.4-1.1c-0.6-0.1-1.4-0.5-2-0.2
				c0.1,0.2-0.2,0.2-0.1,0.4c2.3-0.2,2.1,2,4.1,2c-1.7,1-2.3-2.2-4.3-1.4c0,0.3,0.4,0.2,0.6,0.4c0.5,0.3,1,0.7,1.1,1.4
				c-0.7-0.5-1.6-0.7-2.4-0.9c-0.5,1.3-0.7,3.8-0.1,5.2c0.5-0.1,0.9-0.2,1.4-0.3c0.2-0.1,0,0.2,0.2,0.2c1.3-0.4,2.4,0.7,3.7,0.9
				c2.1,0.2,3.8-1.3,3.3-3.4c-0.2-1-1-1.4-1.6-2c-1.8-1.9,2.9-2.6,3.4-4c0.1-0.4,0.1-1.1-0.2-1.4C47.9,13.9,46.8,16,45.6,16.3z
				 M39.1,15.4c0.1-0.1,0.3-0.1,0.4-0.2c-0.1,0-0.2-0.2-0.3,0C39.5,15.3,38.9,15.3,39.1,15.4z M14.7,16.3c0.1-0.2-0.3-0.3-0.4-0.5
				C14.3,16.1,14.6,16.1,14.7,16.3z M48.3,16.3c0.2-0.2-0.2,0.3,0,0.1c0.1-0.1,0.5-0.5,0.4-0.5C48.6,16.2,48.2,16.2,48.3,16.3z
				 M46.2,17.6c0-0.2-0.1-0.3-0.3-0.3C45.9,17.5,46.1,17.5,46.2,17.6z M12.5,19.4c-0.1-0.1-0.4-0.6-0.5-0.4
				C12.3,19.1,12.3,19.3,12.5,19.4z M50.7,19.4c0-0.2,0.4-0.2,0.2-0.4c0,0.1-0.1,0-0.1,0.1C51,19.2,50.4,19.3,50.7,19.4z M47.9,20.1
				C47.1,20,47.3,20.2,47.9,20.1L47.9,20.1z M15.1,21.3c0-0.1,0.2,0,0.1-0.2c-0.1,0-0.3-0.1-0.4,0.1C15.1,21.1,15,21.3,15.1,21.3z
				 M15.9,21.8c-0.1-0.2,0.4-0.1,0.2-0.2c-0.2,0.1-0.5-0.1-0.4,0.1C15.8,21.7,15.8,21.8,15.9,21.8z M47.7,23.1c0.2,0,0.1-0.5,0-0.5
				C47.7,22.8,47.7,22.9,47.7,23.1z M12.1,23.7c0-0.2-0.5-0.1-0.6-0.1C11.8,23.7,11.9,23.8,12.1,23.7z M51.4,23.7
				c0.2-0.1-0.6-0.1-0.5,0.1C51.2,23.9,51.2,23.7,51.4,23.7z M31.1,24.4C31.1,24.4,31.1,24.4,31.1,24.4c-0.6,0-1.2,0.3-1.8,0.4
				c-1.1,0.1-2.3,0-3.3-0.1c-0.1,3.4,0.1,6.5,0.9,8.9c3.5-1.6,6.1-4.7,8.4-8.4c0.1-0.2,0.4-0.4,0.3-0.6C34,25,32.5,24.6,31.1,24.4z
				 M16.6,25c0.2,0.1-0.1,0.2,0.1,0.2c0-0.1,0.2-0.3,0-0.4C16.7,24.9,16.6,24.9,16.6,25z M46.5,25.2c-0.1,0,0-0.2,0-0.2
				c-0.1,0.1-0.2-0.2-0.2,0C46.3,25,46.3,25.4,46.5,25.2z M46.6,26.8c-0.2-0.3-0.6-0.7-0.5-0.9C46,26.1,46.4,26.6,46.6,26.8z
				 M36.5,26c-2,3.4-3.7,6.2-9,9.1c0.4,0.4,0.4,1.1,1,1.2c0.3,0.1,0.7,0,1,0c0.7,0.1,1.3,0.4,1.8,0.7c0.8-0.6,2.1-0.8,3.4-0.7
				C36.1,33.6,36.6,29.8,36.5,26z M16.4,26.8c0.1-0.1,0.5-0.6,0.4-0.6C16.6,26.4,16.3,26.6,16.4,26.8z M18.4,28.4
				c0.2-0.5,0.8-1.1,0.8-1.7C19.1,27.3,18.5,27.9,18.4,28.4z M44.6,28.5c0.2-0.4-0.8-1-0.6-1.5c-0.1,0-0.2-0.1-0.3-0.2
				C44,27.5,44.4,28.1,44.6,28.5z M12.7,27.4c0.2,0,0.7-0.1,0.5-0.2C13.1,27.3,12.8,27.2,12.7,27.4z M50.3,27.4
				c-0.3,0-0.6-0.3-0.8-0.1C49.8,27.3,50.1,27.6,50.3,27.4z M22.8,27.5C22.7,28.3,23.1,27.7,22.8,27.5L22.8,27.5z M15,30.3
				c0.1-0.1,0.3-0.3,0.2-0.4c0,0.1-0.2,0.1-0.2,0.2C15.2,30.1,14.8,30.5,15,30.3z M48.6,30.7c0.1,0.2,0.3,0.5,0.5,0.4
				c-0.2-0.2-0.9-0.7-1-0.9C48.2,30.4,48.6,31,48.6,30.7z M14,31.1c0.2-0.2,0.5-0.4,0.8-0.7C14.5,30.5,14,30.8,14,31.1z M22,31.8
				c0.1-0.1,0.1-0.2,0.2-0.4C22,31.4,21.9,31.7,22,31.8z M41.9,33.3c-0.1-0.2-0.3-0.5-0.5-0.7C41.4,32.7,41.7,33.3,41.9,33.3z
				 M41.4,32.4c-0.2-0.1-0.1-0.3-0.4-0.5C41.1,32,41.3,32.7,41.4,32.4z M21.2,33.3c0.2-0.4,0.6-0.8,0.5-1.1c0,0,0.1,0,0.1-0.1
				C21.5,32.6,21.3,32.9,21.2,33.3z M15.5,35.1c0.2,0,0.4-0.3,0.3-0.4C15.8,34.9,15.6,34.9,15.5,35.1z M47.5,35.2
				c-0.1-0.1-0.2-0.3-0.4-0.4C47.1,34.8,47.3,35.1,47.5,35.2z"/>
			<path fill-rule="evenodd" clip-rule="evenodd" fill="#231F20" d="M15.9,20.9c-0.1-0.1,0.2,0,0.4-0.1c0.2,0.1-0.3,0-0.2,0.2
				C16,20.9,16,20.9,15.9,20.9z"/>
			<path fill-rule="evenodd" clip-rule="evenodd" fill="#231F20" d="M43.1,23.8c0-0.1,0.1,0.1,0.2,0c0,0-0.1,0.2,0,0.2
				C43.2,24.2,43.2,23.8,43.1,23.8z"/>
			<path fill-rule="evenodd" clip-rule="evenodd" fill="#231F20" d="M43.1,24.6c-0.1,0.2,0.3,0.6,0.4,0.8
				C43.3,25.3,42.9,24.8,43.1,24.6z"/>
			<path fill-rule="evenodd" clip-rule="evenodd" fill="#231F20" d="M16.8,24.9c0.1,0-0.2,0.4-0.3,0.5
				C16.4,25.3,16.7,25.1,16.8,24.9z"/>
			<path fill-rule="evenodd" clip-rule="evenodd" fill="#231F20" d="M19,25.4c0,0.5-0.5,1-0.7,1.5C18.4,26.4,18.9,25.8,19,25.4z"/>
			<path fill-rule="evenodd" clip-rule="evenodd" fill="#231F20" d="M40.9,25.5c0.1,0,0.2,0.1,0.3,0.2C41,26,41.9,26.6,41.7,27
				C41.5,26.6,41.1,26,40.9,25.5z"/>
			<path fill-rule="evenodd" clip-rule="evenodd" fill="#231F20" d="M15.2,28.4c0-0.1,0.2,0,0.2-0.2c0.1,0.1-0.1,0.3-0.2,0.3
				C15.1,28.7,15.4,28.4,15.2,28.4z"/>
			<path fill-rule="evenodd" clip-rule="evenodd" fill="#231F20" d="M44.8,28.4c0.1,0.2,0.7,0.6,0.9,0.8c-0.1,0.1-0.4-0.2-0.4-0.3
				C45.2,29.1,44.9,28.6,44.8,28.4z"/>
			<path fill-rule="evenodd" clip-rule="evenodd" fill="#231F20" d="M15.1,28.6c-0.3,0.3-0.5,0.4-0.7,0.6
				C14.4,29,14.8,28.8,15.1,28.6z"/>
			<path fill-rule="evenodd" clip-rule="evenodd" fill="#231F20" d="M38.9,30.6c0.1,0.2,0.3,0.4,0.4,0.6
				C39.1,31.2,38.8,30.7,38.9,30.6z"/>
			<path fill-rule="evenodd" clip-rule="evenodd" fill="#231F20" d="M21.4,30.2c0,0.1-0.1,0-0.1,0.1c0,0.2-0.3,0.6-0.5,1
				C20.8,30.9,21,30.5,21.4,30.2z"/>
			<path fill-rule="evenodd" clip-rule="evenodd" fill="#231F20" d="M43.9,32.5c0.1,0.1,0.2,0.2,0.3,0.4
				C44.1,32.8,43.9,32.6,43.9,32.5z"/>
			<g>
				<path fill="#231F20" d="M31.3,27.9c0,0.5-0.1,0.9-0.3,1.3c-0.2,0.3-0.4,0.5-0.6,0.6c0,0-0.1,0-0.4,0.1c0,0-0.1,0-0.3,0.1h-0.4
					l-0.4,0c-0.2,0-0.5,0-0.8,0c-0.1,0-0.2,0-0.4,0c-0.1,0-0.2,0-0.4,0c0-0.2-0.2-0.1-0.1-0.3c0.1-0.1,0.3,0.1,0.4,0.1
					c0.2,0,0.3-0.1,0.3-0.3c0-0.4,0-0.7-0.1-1c0-0.1,0-0.2,0-0.4c0-0.2,0-0.4,0.1-0.7c0-0.3,0.1-0.6,0.1-0.7c0-0.1,0-0.2,0-0.3
					c0-0.1-0.1-0.2-0.3-0.2c0,0-0.7-0.1-0.4-0.2l0.2,0c0,0,0,0-0.1,0c0.1,0,0.3,0,0.5,0c0.2,0,0.5-0.1,0.8,0l1,0.1
					c0.3,0,0.5,0.2,0.8,0.4C31.1,27,31.3,27.4,31.3,27.9z M30.3,28.1c0-0.2,0-0.4-0.1-0.7c0-0.3-0.3-0.6-0.7-0.9
					c-0.2-0.1-0.1-0.2-0.3-0.2l-0.3,0c-0.2,0-0.3,0.1-0.3,0.2c0,0.1,0,0.2,0,0.4c0,0.1,0,0.1,0.1,0.3c0,0.1,0,0.2,0,0.3l0,0.1
					c0,0.1,0,0.4,0,0.8c0,0.3,0,0.6,0,0.8c0,0,0,0.1,0,0.2s0,0.1,0,0.2c0,0.2,0.2,0.4,0.5,0.4c0.1,0-0.3,0-0.2,0c0.1,0,0.2,0,0.2,0
					c0.1,0,0.2,0,0.3,0c0.3-0.1,0.5-0.3,0.6-0.5c0-0.1,0.1-0.2,0.1-0.5C30.3,28.6,30.3,28.4,30.3,28.1z"/>
			</g>
			<path fill="#231F20" d="M31.5,62.9C14.1,62.9,0,48.8,0,31.5C0,14.1,14.1,0,31.5,0c17.3,0,31.5,14.1,31.5,31.5
				C62.9,48.8,48.8,62.9,31.5,62.9L31.5,62.9z M31.5,4.4C16.5,4.4,4.4,16.5,4.4,31.5c0,14.9,12.1,27.1,27.1,27.1
				c14.9,0,27.1-12.1,27.1-27.1C58.5,16.5,46.4,4.4,31.5,4.4L31.5,4.4z"/>
			<path fill="#231F20" d="M33.3,32.9l1-0.5L34,33.5l0.9,0.6l-1.1,0.3l-0.1,1.1L33,34.7l-1,0.5l0.3-1.1l-0.9-0.6l1.1-0.3l0.1-1.1
				L33.3,32.9z M32.9,33l0,0.5l-0.5,0.1l0.4,0.3l-0.1,0.5l0.5-0.2l0.3,0.4l0-0.5l0.5-0.1l-0.4-0.3l0.1-0.5l-0.5,0.2L32.9,33z"/>
		</g>
	</g>
	<g>
		<g>
			<g>
				<path fill="#231F20" d="M71,31.1c0-5.1,0-6.1-0.1-7.2c-0.1-1.1-0.3-1.7-1.5-1.9c-0.3-0.1-0.8-0.1-1.3-0.1
					c-0.4,0-0.6-0.1-0.6-0.3c0-0.2,0.2-0.3,0.7-0.3c1.8,0,4.5,0.1,5.4,0.1c1,0,3.2-0.1,5.2-0.1c4.2,0,9.9,0,13.6,3.9
					c1.7,1.8,3.3,4.6,3.3,8.6c0,4.3-1.8,7.5-3.7,9.5c-1.6,1.6-5.1,4-11.3,4c-1.2,0-2.6-0.1-3.9-0.2c-1.3-0.1-3-0.2-3.9-0.2
					c-0.4,0-1.1,0-1.9,0c-0.8,0-1.7,0.1-2.3,0.1c-0.4,0-0.7-0.1-0.7-0.3c0-0.2,0.1-0.3,0.5-0.3c0.5,0,0.9-0.1,1.2-0.1
					c0.7-0.1,0.8-0.9,1-1.9c0.2-1.4,0.2-4.1,0.2-7.2V31.1z M76.8,34.8c0,3.5,0,6,0.1,6.7c0,0.8,0.1,2.1,0.3,2.5
					c0.3,0.6,1.3,1.3,3.4,1.3c2.6,0,4.4-0.7,5.9-2.4c1.7-1.8,2.2-4.8,2.2-8.2c0-4.2-1.4-6.9-2.5-8.3c-2.4-2.9-5.3-3.3-7.3-3.3
					c-0.5,0-1.5,0.1-1.7,0.2c-0.2,0.1-0.3,0.3-0.3,0.7c0,1.1,0,4,0,6.6V34.8z"/>
				<path fill="#231F20" d="M98.7,31.1c0-5.1,0-6.1-0.1-7.2c-0.1-1.1-0.4-1.7-1.2-1.9c-0.4-0.1-0.8-0.1-1.2-0.1
					c-0.3,0-0.5-0.1-0.5-0.3c0-0.2,0.3-0.3,0.8-0.3c1.3,0,3.4,0.1,4.4,0.1c0.9,0,4.5-0.1,5.8-0.1c0.4,0,0.7,0.1,0.7,0.3
					c0,0.3-0.2,0.3-0.5,0.3c-0.3,0-0.6,0-1,0.1c-0.9,0.2-1.2,0.7-1.3,1.9c-0.1,1.1-0.1,2-0.1,7.2v6c0,3.3,0,6,0.1,7.4
					c0.1,0.9,0.3,1.5,1.4,1.7c0.5,0.1,1.2,0.1,1.7,0.1c0.4,0,0.5,0.1,0.5,0.3c0,0.2-0.3,0.3-0.6,0.3c-2.2,0-6-0.1-6.9-0.1
					c-0.8,0-2.9,0.1-4.3,0.1c-0.4,0-0.7-0.1-0.7-0.3c0-0.2,0.1-0.3,0.5-0.3c0.5,0,0.9-0.1,1.2-0.1c0.7-0.1,0.9-0.7,1-1.7
					c0.2-1.4,0.2-4.1,0.2-7.4V31.1z"/>
				<path fill="#231F20" d="M112.8,43.7c-3.3-2.9-4.2-6.7-4.2-10c0-2.3,0.7-6.3,4-9.3c2.4-2.2,5.7-3.6,10.7-3.6
					c2.1,0,3.3,0.1,4.9,0.3c1.3,0.2,2.4,0.5,3.4,0.6c0.4,0,0.5,0.2,0.5,0.4c0,0.3-0.1,0.7-0.2,1.9c-0.1,1.1,0,3-0.1,3.7
					c0,0.5-0.1,0.8-0.4,0.8c-0.3,0-0.3-0.3-0.3-0.7c0-1-0.5-2.2-1.3-3.1c-1.1-1.2-1.9-2.1-5-2.1c-2.9,0-4.9,0.7-6.4,2.1
					c-2.5,2.3-3.1,5.5-3.1,8.8c0,8.1,6.1,12.1,10.7,12.1c3,0,3-0.3,4.3-1.9c0.6-0.6,1-1.6,1.1-2.2c0.1-0.5,0.2-0.7,0.4-0.7
					c0.2,0,0.3,0.2,0.3,0.5c0,0.4-0.4,3.4-0.7,4.5c-0.2,0.6-0.3,0.7-0.9,1c-1.4,0.5-3.9,0.8-6.1,0.8
					C119.7,47.4,115.9,46.4,112.8,43.7z"/>
				<path fill="#231F20" d="M133.7,34.1c0-5.8,3.8-13.3,14-13.3c8.4,0,13.7,4.9,13.7,12.7c0,7.8-5.4,13.9-14,13.9
					C137.6,47.4,133.7,40.1,133.7,34.1z M154.8,32.5c-2.2-7.3-7-10.7-11.4-9.4c-3.1,0.9-5.9,4.1-3.5,12.1c2,6.7,6.7,11.2,11.8,9.6
					C153.7,44.3,157.7,41.9,154.8,32.5z"/>
				<path fill="#231F20" d="M214.1,34.1c0-5.8,3.8-13.3,14-13.3c8.4,0,13.7,4.9,13.7,12.7c0,7.8-5.4,13.9-14,13.9
					C218.1,47.4,214.1,40.1,214.1,34.1z M235.3,32.5c-2.2-7.3-7-10.7-11.4-9.4c-3.1,0.9-5.9,4.1-3.5,12.1c2,6.7,6.7,11.2,11.8,9.6
					C234.2,44.3,238.1,41.9,235.3,32.5z"/>
				<path fill="#231F20" d="M165.3,31.1c0-5.1,0-6.1-0.1-7.2c-0.1-1.1-0.3-1.7-1.5-1.9c-0.3-0.1-0.8-0.1-1.3-0.1
					c-0.4,0-0.6-0.1-0.6-0.3c0-0.2,0.2-0.3,0.7-0.3c1.8,0,5.6,0.1,6.3,0.1c1.2,0,3.7-0.1,4.8-0.1c2.1,0,4.4,0.2,6.2,1.5
					c0.9,0.6,2.3,2.4,2.3,4.6c0,2.5-1,4.8-4.5,7.6c3,3.8,10.3,12.1,12.3,14.2c1.9,2,3.3,2.2,3.8,2.3c0.4,0.1,0.7,0.1,1,0.1
					c0.3,0,0.4,0.1,0.4,0.3c0,0.3-0.2,0.3-0.6,0.3h-3.2c-1.9,0-4.6-0.2-5.5-0.6c-1.5-0.8-7.7-7.7-9.5-10.3c-1.4-1.9-2.9-4.2-3.4-4.7
					c-0.2-0.2-0.4-0.2-0.6-0.2l-1.1-0.1c-0.2,0-0.3,0.1-0.3,0.3V37c0,3.1,0,5.8,0.2,7.2c0.1,1,0.3,1.7,1.3,1.9
					c0.5,0.1,1.3,0.1,1.7,0.1c0.3,0,0.4,0.1,0.4,0.3c0,0.2-0.2,0.3-0.7,0.3c-2,0-4.5-0.1-5-0.1c-0.6,0-4.4,0.1-5.8,0.1
					c-0.4,0-0.7-0.1-0.7-0.3c0-0.2,0.1-0.3,0.5-0.3c0.5,0,0.9-0.1,1.2-0.1c0.7-0.1,0.8-0.9,1-1.9c0.2-1.4,0.2-4.1,0.2-7.2V31.1z
					 M171,33.8c0,0.4,0.1,0.5,0.2,0.6c0.5,0.2,1.3,0.3,2,0.3c1,0,1.4-0.1,1.8-0.6c0.8-0.7,1.5-2.3,1.5-5.1c0-4.8-2.4-6.2-4-6.2
					c-0.6,0-1.1,0-1.4,0.1c-0.2,0.1-0.2,0.2-0.2,0.5V33.8z"/>
				<path fill="#231F20" d="M215.2,46.3c-0.4,0-1.1,0-2.1-0.3c-1-0.3-1.4-1.3-1.7-3.4l-3.1-20.9c-0.1-0.7-0.3-1.1-0.6-1.1
					c-0.3,0-0.5,0.3-0.7,0.8l-8.2,17.2c0,0-8.2-16.7-8.6-17.3c-0.7-1.3-2.9-1.5-3.1,0.2l-2.7,18l2.1,2.4L188,30h0.1
					c1.2,2.5,3.2,6.8,3.5,7.5c0.4,0.9,3.1,6.1,3.9,7.7c0.5,1,0.9,1.7,1.2,1.7c0.3,0,0.5-0.3,1.2-1.9l6.4-13.3h0.1l1.7,12.9
					c0.1,1,0,1.4-0.2,1.5c-0.2,0.1-0.4,0.2-0.4,0.4c0,0.2,0.2,0.3,1,0.4c1.4,0.1,7.4,0.2,8.2,0.2c0.5,0,0.9-0.1,0.9-0.4
					C215.8,46.3,215.5,46.3,215.2,46.3z"/>
			</g>
		</g>
		<g>
			<path fill="#231F20" d="M73.7,7.5c0-2,0-2.4,0-2.8c0-0.5-0.2-0.7-0.5-0.7c-0.1,0-0.3-0.1-0.5-0.1c-0.1,0-0.2,0-0.2-0.1
				c0-0.1,0.1-0.1,0.3-0.1c0.5,0,1.3,0,1.7,0c0.3,0,1.1,0,1.6,0c0.2,0,0.3,0,0.3,0.1c0,0.1-0.1,0.1-0.2,0.1c-0.1,0-0.2,0-0.4,0
				c-0.4,0.1-0.5,0.3-0.5,0.8c0,0.4,0,0.8,0,2.8v2.3c0,1.3,0,2.3,0.1,2.9c0,0.4,0.1,0.6,0.5,0.6c0.2,0,0.5,0.1,0.7,0.1
				c0.1,0,0.2,0,0.2,0.1c0,0.1-0.1,0.1-0.3,0.1c-0.9,0-1.7,0-2.1,0c-0.3,0-1.1,0-1.7,0c-0.2,0-0.3,0-0.3-0.1c0-0.1,0.1-0.1,0.2-0.1
				c0.2,0,0.4,0,0.5-0.1c0.3-0.1,0.3-0.3,0.4-0.7c0.1-0.6,0.1-1.6,0.1-2.9V7.5z"/>
			<path fill="#231F20" d="M91,11.8c0,1,0.2,1.4,0.5,1.5c0.2,0.1,0.5,0.1,0.7,0.1c0.1,0,0.2,0,0.2,0.1c0,0.1-0.1,0.1-0.3,0.1
				c-0.9,0-1.4,0-1.6,0c-0.1,0-0.7,0-1.4,0c-0.2,0-0.3,0-0.3-0.1c0-0.1,0.1-0.1,0.2-0.1c0.2,0,0.4,0,0.6-0.1
				c0.3-0.1,0.4-0.5,0.4-1.6L90,3.8c0-0.3,0-0.4,0.2-0.4c0.1,0,0.3,0.2,0.5,0.4c0.2,0.2,2.2,2.3,4.1,4.3c0.9,0.9,2.7,2.8,2.9,3h0.1
				l-0.1-6c0-0.8-0.1-1.1-0.4-1.2c-0.2-0.1-0.5-0.1-0.7-0.1c-0.2,0-0.2,0-0.2-0.1c0-0.1,0.1-0.1,0.3-0.1c0.7,0,1.3,0,1.6,0
				c0.1,0,0.6,0,1.3,0c0.2,0,0.3,0,0.3,0.1c0,0.1-0.1,0.1-0.2,0.1c-0.1,0-0.2,0-0.4,0C98.8,4,98.7,4.3,98.7,5l-0.1,8.4
				c0,0.3-0.1,0.4-0.2,0.4c-0.1,0-0.3-0.1-0.5-0.3c-0.8-0.8-2.5-2.5-3.9-3.9c-1.4-1.4-2.9-3.1-3.2-3.3h0L91,11.8z"/>
			<path fill="#231F20" d="M112.7,13.5c-0.2-0.1-0.2-0.2-0.2-0.4c0-0.7,0-1.5,0.1-1.7c0-0.2,0.1-0.3,0.2-0.3c0.1,0,0.1,0.1,0.1,0.2
				c0,0.2,0.1,0.4,0.1,0.7c0.3,1,1.1,1.3,1.9,1.3c1.2,0,1.8-0.8,1.8-1.5c0-0.7-0.2-1.3-1.3-2.1l-0.6-0.5c-1.5-1.1-2-2.1-2-3.1
				c0-1.5,1.2-2.5,3.1-2.5c0.9,0,1.4,0.1,1.8,0.2c0.1,0,0.2,0.1,0.2,0.2c0,0.2-0.1,0.6-0.1,1.6c0,0.3,0,0.4-0.1,0.4
				c-0.1,0-0.1-0.1-0.1-0.2c0-0.1-0.1-0.5-0.3-0.9c-0.2-0.3-0.6-0.7-1.4-0.7c-1,0-1.6,0.6-1.6,1.4c0,0.6,0.3,1.1,1.4,1.9l0.4,0.3
				c1.6,1.2,2.2,2.1,2.2,3.4c0,0.8-0.3,1.7-1.2,2.3c-0.7,0.4-1.4,0.5-2.1,0.5C113.8,13.8,113.2,13.7,112.7,13.5z"/>
			<path fill="#231F20" d="M133.5,4.4l-2,0.1c-0.8,0-1.1,0.1-1.3,0.4C130.1,5,130,5.2,130,5.3c0,0.1-0.1,0.2-0.1,0.2
				c-0.1,0-0.1-0.1-0.1-0.2c0-0.2,0.3-1.4,0.3-1.5c0-0.2,0.1-0.2,0.2-0.2c0.1,0,0.2,0.1,0.6,0.2c0.4,0,0.9,0.1,1.3,0.1h5.3
				c0.4,0,0.7,0,0.9-0.1c0.2,0,0.3-0.1,0.4-0.1c0.1,0,0.1,0.1,0.1,0.3c0,0.3,0,1.2,0,1.5c0,0.1,0,0.2-0.1,0.2
				c-0.1,0-0.1-0.1-0.1-0.3l0-0.1c0-0.3-0.4-0.7-1.6-0.7l-1.7,0v5.4c0,1.2,0,2.3,0.1,2.8c0,0.4,0.1,0.7,0.5,0.7
				c0.2,0,0.5,0.1,0.7,0.1c0.1,0,0.2,0,0.2,0.1c0,0.1-0.1,0.1-0.2,0.1c-0.9,0-1.7,0-2.1,0c-0.3,0-1.1,0-1.7,0c-0.2,0-0.3,0-0.3-0.1
				c0-0.1,0-0.1,0.2-0.1c0.2,0,0.4,0,0.5-0.1c0.3-0.1,0.3-0.3,0.4-0.7c0.1-0.6,0.1-1.6,0.1-2.8V4.4z"/>
			<path fill="#231F20" d="M151.7,7.5c0-2,0-2.4,0-2.8c0-0.5-0.2-0.7-0.4-0.7c-0.1,0-0.3-0.1-0.5-0.1c-0.1,0-0.2,0-0.2-0.1
				c0-0.1,0.1-0.1,0.3-0.1c0.5,0,1.3,0,1.7,0c0.3,0,1.1,0,1.6,0c0.2,0,0.3,0,0.3,0.1c0,0.1-0.1,0.1-0.2,0.1c-0.1,0-0.2,0-0.4,0
				c-0.4,0.1-0.5,0.3-0.5,0.8c0,0.4,0,0.8,0,2.8v2.3c0,1.3,0,2.3,0.1,2.9c0,0.4,0.1,0.6,0.5,0.6c0.2,0,0.5,0.1,0.7,0.1
				c0.1,0,0.2,0,0.2,0.1c0,0.1-0.1,0.1-0.3,0.1c-0.9,0-1.7,0-2.1,0c-0.3,0-1.1,0-1.7,0c-0.2,0-0.3,0-0.3-0.1c0-0.1,0.1-0.1,0.2-0.1
				c0.2,0,0.4,0,0.5-0.1c0.3-0.1,0.3-0.3,0.4-0.7c0.1-0.6,0.1-1.6,0.1-2.9V7.5z"/>
			<path fill="#231F20" d="M170.1,4.4l-2,0.1c-0.8,0-1.1,0.1-1.3,0.4c-0.1,0.2-0.2,0.4-0.2,0.5c0,0.1-0.1,0.2-0.1,0.2
				c-0.1,0-0.1-0.1-0.1-0.2c0-0.2,0.3-1.4,0.3-1.5c0-0.2,0.1-0.2,0.2-0.2c0.1,0,0.2,0.1,0.6,0.2c0.4,0,0.9,0.1,1.3,0.1h5.2
				c0.4,0,0.7,0,0.9-0.1c0.2,0,0.3-0.1,0.4-0.1c0.1,0,0.1,0.1,0.1,0.3c0,0.3,0,1.2,0,1.5c0,0.1,0,0.2-0.1,0.2
				c-0.1,0-0.1-0.1-0.1-0.3l0-0.1c0-0.3-0.4-0.7-1.6-0.7l-1.7,0v5.4c0,1.2,0,2.3,0.1,2.8c0,0.4,0.1,0.7,0.5,0.7
				c0.2,0,0.5,0.1,0.7,0.1c0.1,0,0.2,0,0.2,0.1c0,0.1-0.1,0.1-0.3,0.1c-0.9,0-1.7,0-2.1,0c-0.3,0-1.1,0-1.7,0c-0.2,0-0.3,0-0.3-0.1
				c0-0.1,0.1-0.1,0.2-0.1c0.2,0,0.4,0,0.5-0.1c0.3-0.1,0.3-0.3,0.4-0.7c0.1-0.6,0.1-1.6,0.1-2.8V4.4z"/>
			<path fill="#231F20" d="M187.7,7.5c0-2,0-2.4,0-2.8c0-0.5-0.1-0.7-0.6-0.8c-0.1,0-0.3,0-0.5,0c-0.1,0-0.2,0-0.2-0.1
				c0-0.1,0.1-0.1,0.3-0.1c0.7,0,1.5,0,1.9,0c0.3,0,1.2,0,1.6,0c0.2,0,0.3,0,0.3,0.1c0,0.1-0.1,0.1-0.2,0.1c-0.1,0-0.2,0-0.4,0
				c-0.4,0.1-0.5,0.3-0.5,0.8c0,0.4,0,0.8,0,2.8v1.9c0,1.9,0.4,2.7,1,3.3c0.6,0.5,1.2,0.5,1.7,0.5c0.6,0,1.3-0.2,1.8-0.7
				c0.7-0.7,0.8-1.9,0.8-3.3V7.5c0-2,0-2.4,0-2.8c0-0.5-0.1-0.7-0.6-0.8c-0.1,0-0.3,0-0.5,0c-0.1,0-0.2,0-0.2-0.1
				c0-0.1,0.1-0.1,0.3-0.1c0.7,0,1.5,0,1.5,0c0.2,0,1,0,1.5,0c0.2,0,0.3,0,0.3,0.1c0,0.1-0.1,0.1-0.2,0.1c-0.1,0-0.2,0-0.4,0
				c-0.4,0.1-0.5,0.3-0.5,0.8c0,0.4,0,0.8,0,2.8v1.4c0,1.5-0.1,3-1.3,4c-0.9,0.8-1.9,1-2.8,1c-0.7,0-2,0-2.9-0.9
				c-0.7-0.6-1.2-1.6-1.2-3.5V7.5z"/>
			<path fill="#231F20" d="M212,4.4l-2,0.1c-0.8,0-1.1,0.1-1.3,0.4c-0.1,0.2-0.2,0.4-0.2,0.5c0,0.1-0.1,0.2-0.1,0.2
				c-0.1,0-0.1-0.1-0.1-0.2c0-0.2,0.3-1.4,0.3-1.5c0-0.2,0.1-0.2,0.2-0.2c0.1,0,0.2,0.1,0.6,0.2c0.4,0,0.9,0.1,1.3,0.1h5.2
				c0.4,0,0.7,0,0.9-0.1c0.2,0,0.3-0.1,0.4-0.1c0.1,0,0.1,0.1,0.1,0.3c0,0.3,0,1.2,0,1.5c0,0.1,0,0.2-0.1,0.2
				c-0.1,0-0.1-0.1-0.1-0.3l0-0.1c0-0.3-0.4-0.7-1.6-0.7l-1.7,0v5.4c0,1.2,0,2.3,0.1,2.8c0,0.4,0.1,0.7,0.5,0.7
				c0.2,0,0.5,0.1,0.7,0.1c0.1,0,0.2,0,0.2,0.1c0,0.1-0.1,0.1-0.3,0.1c-0.9,0-1.7,0-2.1,0c-0.3,0-1.1,0-1.7,0c-0.2,0-0.3,0-0.3-0.1
				c0-0.1,0.1-0.1,0.2-0.1c0.2,0,0.4,0,0.5-0.1c0.3-0.1,0.3-0.3,0.4-0.7c0.1-0.6,0.1-1.6,0.1-2.8V4.4z"/>
			<path fill="#231F20" d="M228.6,8.6c0-2.3,1.5-5.2,5.5-5.2c3.3,0,5.4,1.9,5.4,5c0,3-2.1,5.4-5.5,5.4
				C230.1,13.8,228.6,11,228.6,8.6z M237.6,8.9c0-3-1.7-4.8-3.9-4.8c-1.5,0-3.3,0.9-3.3,4.2c0,2.8,1.5,4.9,4.1,4.9
				C235.4,13.2,237.6,12.7,237.6,8.9z"/>
		</g>
		<text transform="matrix(1 0 0 1 241.1719 23.1065)" fill="#231F20" font-family="'HelveticaNeueLTStd-Md'" font-size="5.403">MR.</text>
	</g>
	<g>
		<path fill="#231F20" d="M85,62.5c-0.4,0.2-1.1,0.4-2,0.4c-2.2,0-3.8-1.4-3.8-3.9c0-2.4,1.6-4,4-4c1,0,1.6,0.2,1.8,0.3l-0.2,0.8
			c-0.4-0.2-0.9-0.3-1.5-0.3c-1.8,0-3,1.1-3,3.2c0,1.9,1.1,3.1,2.9,3.1c0.6,0,1.2-0.1,1.6-0.3L85,62.5z"/>
		<path fill="#231F20" d="M90.2,59.2h-3V62h3.3v0.8h-4.3v-7.7h4.1V56h-3.1v2.4h3V59.2z"/>
		<path fill="#231F20" d="M91.8,62.8v-7.7h1.1l2.5,3.9c0.6,0.9,1,1.7,1.4,2.5l0,0c-0.1-1-0.1-2-0.1-3.1v-3.2h0.9v7.7h-1l-2.4-3.9
			c-0.5-0.9-1-1.7-1.4-2.6l0,0c0.1,1,0.1,1.9,0.1,3.2v3.3H91.8z"/>
		<path fill="#231F20" d="M100.8,56h-2.3v-0.8h5.7V56h-2.3v6.8h-1V56z"/>
		<path fill="#231F20" d="M104.9,55.2c0.5-0.1,1.2-0.2,1.9-0.2c1.1,0,1.7,0.2,2.2,0.6c0.4,0.3,0.6,0.9,0.6,1.5c0,1-0.6,1.7-1.4,2v0
			c0.6,0.2,0.9,0.8,1.1,1.5c0.2,1.1,0.4,1.8,0.6,2.1h-1c-0.1-0.2-0.3-0.9-0.5-1.8c-0.2-1.1-0.6-1.5-1.5-1.5h-0.9v3.3h-1V55.2z
			 M105.9,58.7h1c1.1,0,1.7-0.6,1.7-1.5c0-1-0.7-1.4-1.8-1.4c-0.5,0-0.8,0-1,0.1V58.7z"/>
		<path fill="#231F20" d="M117.6,58.9c0,2.6-1.6,4-3.6,4c-2,0-3.4-1.6-3.4-3.9c0-2.4,1.5-4,3.6-4C116.3,55,117.6,56.6,117.6,58.9z
			 M111.7,59c0,1.6,0.9,3.1,2.4,3.1c1.6,0,2.5-1.4,2.5-3.2c0-1.5-0.8-3.1-2.4-3.1C112.5,55.8,111.7,57.3,111.7,59z"/>
		<path fill="#231F20" d="M125.3,59.2h-3V62h3.3v0.8h-4.3v-7.7h4.1V56h-3.1v2.4h3V59.2z"/>
		<path fill="#231F20" d="M126.9,55.2c0.6-0.1,1.3-0.2,2.1-0.2c1.4,0,2.4,0.3,3.1,1c0.7,0.6,1.1,1.5,1.1,2.7c0,1.2-0.4,2.3-1.1,3
			c-0.7,0.7-1.9,1.1-3.4,1.1c-0.7,0-1.3,0-1.8-0.1V55.2z M127.9,62c0.3,0,0.6,0.1,1,0.1c2.1,0,3.3-1.2,3.3-3.2c0-1.8-1-3-3.1-3
			c-0.5,0-0.9,0-1.2,0.1V62z"/>
		<path fill="#231F20" d="M135.5,55.1v4.5c0,1.7,0.8,2.4,1.8,2.4c1.1,0,1.9-0.7,1.9-2.4v-4.5h1v4.5c0,2.4-1.2,3.3-2.9,3.3
			c-1.6,0-2.7-0.9-2.7-3.3v-4.5H135.5z"/>
		<path fill="#231F20" d="M147.2,62.5c-0.4,0.2-1.1,0.4-2,0.4c-2.2,0-3.8-1.4-3.8-3.9c0-2.4,1.6-4,4-4c1,0,1.6,0.2,1.8,0.3l-0.2,0.8
			c-0.4-0.2-0.9-0.3-1.5-0.3c-1.8,0-3,1.1-3,3.2c0,1.9,1.1,3.1,2.9,3.1c0.6,0,1.2-0.1,1.6-0.3L147.2,62.5z"/>
		<path fill="#231F20" d="M149.7,60.4l-0.8,2.4h-1l2.6-7.7h1.2l2.6,7.7h-1.1l-0.8-2.4H149.7z M152.2,59.6l-0.7-2.2
			c-0.2-0.5-0.3-1-0.4-1.4h0c-0.1,0.5-0.2,0.9-0.4,1.4l-0.7,2.2H152.2z"/>
		<path fill="#231F20" d="M156,56h-2.3v-0.8h5.7V56H157v6.8h-1V56z"/>
		<path fill="#231F20" d="M161.1,55.1v7.7h-1v-7.7H161.1z"/>
		<path fill="#231F20" d="M164.5,62.8l-2.5-7.7h1.1l1.2,3.8c0.3,1,0.6,2,0.8,2.9h0c0.2-0.9,0.5-1.9,0.9-2.8l1.3-3.8h1.1l-2.7,7.7
			H164.5z"/>
		<path fill="#231F20" d="M175.7,58.9c0,2.6-1.6,4-3.6,4c-2,0-3.4-1.6-3.4-3.9c0-2.4,1.5-4,3.6-4C174.4,55,175.7,56.6,175.7,58.9z
			 M169.8,59c0,1.6,0.9,3.1,2.4,3.1c1.6,0,2.5-1.4,2.5-3.2c0-1.5-0.8-3.1-2.4-3.1C170.6,55.8,169.8,57.3,169.8,59z"/>
		<path fill="#231F20" d="M179.4,55.2c0.6-0.1,1.3-0.2,2.1-0.2c1.4,0,2.4,0.3,3.1,1c0.7,0.6,1.1,1.5,1.1,2.7c0,1.2-0.4,2.3-1.1,3
			c-0.7,0.7-1.9,1.1-3.4,1.1c-0.7,0-1.3,0-1.8-0.1V55.2z M180.4,62c0.2,0,0.6,0.1,1,0.1c2.1,0,3.3-1.2,3.3-3.2c0-1.8-1-3-3.1-3
			c-0.5,0-0.9,0-1.2,0.1V62z"/>
		<path fill="#231F20" d="M190.9,59.2h-3V62h3.3v0.8H187v-7.7h4.1V56H188v2.4h3V59.2z"/>
		<path fill="#231F20" d="M195,55.2c0.6-0.1,1.3-0.2,2.1-0.2c1.4,0,2.4,0.3,3.1,1c0.7,0.6,1.1,1.5,1.1,2.7c0,1.2-0.4,2.3-1.1,3
			c-0.7,0.7-1.9,1.1-3.4,1.1c-0.7,0-1.3,0-1.8-0.1V55.2z M196,62c0.2,0,0.6,0.1,1,0.1c2.1,0,3.3-1.2,3.3-3.2c0-1.8-1-3-3.1-3
			c-0.5,0-0.9,0-1.2,0.1V62z"/>
		<path fill="#231F20" d="M203.5,55.1v7.7h-1v-7.7H203.5z"/>
		<path fill="#231F20" d="M205.1,61.6c0.4,0.3,1.1,0.5,1.8,0.5c1,0,1.6-0.5,1.6-1.3c0-0.7-0.4-1.1-1.4-1.5c-1.2-0.4-2-1.1-2-2.2
			c0-1.2,1-2.1,2.5-2.1c0.8,0,1.4,0.2,1.7,0.4l-0.3,0.8c-0.2-0.1-0.8-0.4-1.5-0.4c-1,0-1.4,0.6-1.4,1.1c0,0.7,0.5,1.1,1.5,1.5
			c1.3,0.5,2,1.1,2,2.2c0,1.2-0.9,2.2-2.7,2.2c-0.7,0-1.5-0.2-2-0.5L205.1,61.6z"/>
		<path fill="#231F20" d="M214.8,59.2h-3V62h3.3v0.8h-4.3v-7.7h4.1V56h-3.1v2.4h3V59.2z"/>
		<path fill="#231F20" d="M216.4,62.8v-7.7h1.1L220,59c0.6,0.9,1,1.7,1.4,2.5l0,0c-0.1-1-0.1-2-0.1-3.1v-3.2h0.9v7.7h-1l-2.4-3.9
			c-0.5-0.9-1-1.7-1.4-2.6l0,0c0.1,1,0.1,1.9,0.1,3.2v3.3H216.4z M218,54.7c0-0.7,0.3-1.2,0.8-1.2c0.2,0,0.4,0.1,0.7,0.2
			c0.2,0.1,0.4,0.2,0.5,0.2c0.2,0,0.3-0.1,0.3-0.4h0.5c0,0.7-0.2,1.1-0.8,1.1c-0.2,0-0.4-0.1-0.7-0.2c-0.2-0.1-0.4-0.2-0.5-0.2
			c-0.2,0-0.3,0.2-0.3,0.5H218z"/>
		<path fill="#231F20" d="M230.4,58.9c0,2.6-1.6,4-3.6,4c-2,0-3.4-1.6-3.4-3.9c0-2.4,1.5-4,3.6-4C229.1,55,230.4,56.6,230.4,58.9z
			 M224.5,59c0,1.6,0.9,3.1,2.4,3.1c1.6,0,2.5-1.4,2.5-3.2c0-1.5-0.8-3.1-2.4-3.1C225.3,55.8,224.5,57.3,224.5,59z"/>
	</g>
</g>
</svg>
