<?xml version="1.0" encoding="utf-8"?>
<!-- Generator: Adobe Illustrator 18.0.0, SVG Export Plug-In . SVG Version: 6.00 Build 0)  -->
<!DOCTYPE svg PUBLIC "-//W3C//DTD SVG 1.1//EN" "http://www.w3.org/Graphics/SVG/1.1/DTD/svg11.dtd">
<svg version="1.1" id="Layer_1" xmlns="http://www.w3.org/2000/svg" xmlns:xlink="http://www.w3.org/1999/xlink" x="0px" y="0px"
	 width="276.2px" height="371.4px" viewBox="0 0 276.2 371.4" enable-background="new 0 0 276.2 371.4" xml:space="preserve">
<g>
	<g>
		<g>
			<path fill="#FFFFFF" d="M198.9,79.9C196.8,80.6,196,79.7,198.9,79.9L198.9,79.9z"/>
			<path fill="#FFFFFF" d="M77.6,84.1c0-0.5,0.9-0.1,1.3-0.2c0.1,0.5-0.4,0.3-0.4,0.7C78.1,84.4,78.2,83.8,77.6,84.1z"/>
			<path fill="#FFFFFF" d="M198.2,89.3c0.4,0,0.9,1.8,0,1.7C198.2,90.5,198.2,89.9,198.2,89.3z"/>
			<path fill="#FFFFFF" d="M65.1,93.2c0.2-0.3,2.3-0.6,2.2,0.2C66.3,93.6,66,93.1,65.1,93.2z"/>
			<path fill="#FFFFFF" d="M210,93.9c-0.1-0.9,2.7-0.7,2-0.4C211.2,93.5,211,94.1,210,93.9z"/>
			<path fill="#FFFFFF" d="M84.1,97.6c0.6,0.2-0.1,0.9,0,1.3c-0.9-0.1,0.2-0.7-0.4-0.9C83.7,97.8,84.1,97.9,84.1,97.6z"/>
			<path fill="#FFFFFF" d="M71.5,106.1c0.6,0.6-1.2,0.8-2,0.9C69.8,106.3,71,106.5,71.5,106.1z"/>
			<path fill="#FFFFFF" d="M205,106.5c0.8-0.5,1.8,0.5,2.8,0.4C207,107.5,205.7,106.7,205,106.5z"/>
			<path fill="#FFFFFF" d="M106.7,107.2C107.6,108,106.4,110.2,106.7,107.2L106.7,107.2z"/>
			<path fill="#FFFFFF" d="M104.3,121.8c-0.2,0.4-0.4,0.9-0.7,1.3C103.3,122.9,103.7,121.6,104.3,121.8z"/>
			<path fill="#FFFFFF" d="M173.6,123.3c1.1,0.7,0.8,1.7,1.5,2C174.5,126.2,173.9,124,173.6,123.3z"/>
			<path fill="#FFFFFF" d="M81,133.7c0.4,0.4-0.5,1.4-1.1,1.5C80,134.4,80.8,134.4,81,133.7z"/>
			<path fill="#FFFFFF" d="M203.1,67.3c7.9-0.4,12.7-6,17.3-10.5c2.5,0.3,2.5,3.8,1.7,6.1c-0.9,2.7-3.2,5.5-5.6,7.6
				c-2.7,2.3-5.8,3.4-7.8,5.1c6.7-1.1,12.6-3.1,16.6-6.8c-2.1,4.7-8.6,7.2-14.2,9.3c8.4,0.4,15.5-2.6,20.3-6.6
				c0.7,0.3,0.9,1.1,1.5,1.5c0.2,6.5-7.2,12.4-13.9,13.9c-2.2,0.5-4.4,0.3-6.6,0.2c-0.3-0.8-0.2-1.9-1-2.2c-0.6,0.9,0.4,2.5-0.2,3.7
				c0.7,0,2.6,0.5,2.2-0.5c7-0.6,15.6,0.5,20.3-2.4c-1.9,4.6-10.1,4.8-17.6,4.6c1.3,2,5.9,3.4,9.8,3.7c3,0.2,5.7-0.2,7.6-1.2
				c2.8,10.8-14.1,8.8-21,7.3c0.8,1.5,2.6,1,3.9,1.5c2.3,0.9,4.6,2.7,7.3,3.7c2.7,0.9,5.3,1.8,8.5,2.2c-8.4,1.8-16.2-2.8-21.2-6.8
				c4.5,6.9,11.7,11,22.5,11.7c-2.4,7.5-15,4-20.5,1.7c2.5,3.8,7.7,7,12.5,9.3c-6-0.8-10.6-5-15.1-8.1c1.6,3.5,4.6,6.4,7.6,9
				c2.8,2.5,6.2,5.4,9.8,6.8c1.4,0.6,3.1,0.1,4.2,1.5c0,0.3,0.1,0.4,0.2,0.5c-1,2.5-3.2,3.4-6.6,3.2c-9-0.7-15.8-8.8-21.2-13.2
				c-0.1,1.9,1.9,2.6,2.9,3.9c4.5,5.6,8.9,12.2,14.9,16.6c-6.6-3.4-12-10.3-17.3-15.9c0,2.6,2.1,4.7,3.4,6.8
				c3.8,5.9,8.7,13.4,14.9,16.8c1.6,0.9,3.6,1,4.9,2.4c-0.7,2.4-3.1,3.4-6.1,3.2c-9.1-0.7-16.9-9.5-21.7-15.4
				c-6-7.4-10.3-15.8-13.7-23.2c0.7,9.7,4.5,19,8.8,26.1c0.6,1,3.2,2.8,3.2,3.9c0,1.2-1.5,2.4-4.6,1.5c-1.4-0.4-5.1-3.3-6.3-4.4
				c-6.3-5.5-10.3-15.8-13.2-24.9c-0.5-1.6-0.8-2.5-2.4-4.2c-2.8,13.6-2.5,30.2-10.7,38.3c4.2,3.4,5,16.3,13.4,14.6
				c1.1-0.2,1.8-1.2,2.4-1.5c0.8,4.5-6.3,3.7-8.8,2c1.5,4,4.8,7.3,7.8,10.5c3.1,3.2,6.6,6.2,10,8.8c0.7-0.2-0.6-0.4-0.2-1
				c4.1,0.5,5.5-1.6,8.5-2.2c0.5,0.2,1.5,0,1.2,1c1.5-1.3,5.1-1.5,4.9,1.5c-0.8,0-2.7-1.3-4.2-0.2c-0.8,0.3,0.6,1.4-0.5,1.5
				c-2.6-0.7-4.4,0.1-7.6,0.5c0.5,2.2,4.3,0.9,6.3,1c0.8,0,1.1,0.6,1.5,1c3-1.2,6.3,1.5,4.2,3.9c-0.5-0.7-0.6-1.9-1.5-2.2
				c-1.2,0-2.6,0.1-3.2-0.5c-0.8,0.6,0.6,1.8-0.5,2c-1.7,0.2-1.6-1.5-2.7-2c-1.7,0.1-3.3,0-4.4-0.5c0.5,2,4.3,2.8,5.9,4.6
				c0.7,0.6-0.5,0.3-0.5,1c2.2,0.6,4.5,4.5,1.2,5.6c0.5-2.7-1.7-2.7-2.9-3.7c-1-0.1,0.1,1.7-1,1.5c-2.1-1.8-1.1-4.2-2.2-5.9
				c-1.5-2.3-4.1-1.4-6.3-2.4c-1.2-0.6-1.9-2.8-3.4-3.2c-2.9-0.7-3.9,3.3-6.3,2c-1.3-0.7-0.2-2.5-1.7-2.9c-1.6-0.5-2.4,0.8-3.4,0.7
				c-1.5-3.5,5.5-4.4,5.6-1c0.6-0.3-0.1-2.1,0.5-2.4c2.9-0.2,3.5,1.9,5.9,2.2c-1.2-2.9-3.9-4.7-6.1-6.6c-2.2-1.9-4.6-3.7-6.3-6.1
				c-2.3-1-5.6-1.1-6.6-3.4c-1,1.3-1.2,3.4-3.2,3.7c0.8-5.4-0.1-11.1-4.9-11.7c-0.7,9,1.4,20.7,10.3,21c-0.5,4.1-7.9,3.3-10,0
				c0.1,3,1.1,5,2.4,6.3c4.6,4.7,15.4-0.1,13.9,9.5c-0.7,0.3-1.2-1-1.9-1.5c-1.6-0.8-3.7-0.4-5.9-0.7c-3.7-0.5-6.4-2.9-8.3-4.6
				c1.4,4.7,6.1,13.1,12.7,12.5c1.5-0.1,2.3-1.5,3.2-1c2.5,3.4-2.5,6.2-6.3,4.9c5.7,8.5,22.3-3.5,11.2-9.3c3.7-3.6,8.2,2.5,8.5,5.9
				c1.2,10.5-12.5,15-20.3,9.3c2.8,4.3,0.6,14.8-6.6,11c2.3-1.1,2.9-4.6,1.2-7.1c-2-3-7.5-5.5-8.3-10.3c-0.9,7,1.2,15.3,3.9,20.3
				c-1,0.3-1.8,0.9-3.2,0.7c-0.5,3.5-6.5,3.9-6.8,0c-1.5,0.1-2.4-0.4-3.4-0.7c3-5.2,4.2-12.3,4.4-20.3c-1.6,0.2-1.2,1.8-1.7,2.9
				c-0.8,1.6-2.6,3.6-4.1,4.9c-1.7,1.4-4.7,3.1-3.9,6.8c0.3,1.3,1.1,1.8,2.4,2.4c-6,4.3-10.4-5.1-6.8-10.5
				c-5.7,2.8-13.3,3.7-17.8-1.5c-3.2-3.6-3.5-10.4,0.5-13.7c0.8-0.7,4-2.3,5.6-0.7c-0.9,1.2-2,1.2-2.7,2.2c-5,7.9,9.1,14.1,13.9,7.8
				c-3.7,0.8-9-1.6-6.3-5.6c6.3,4.8,14.2-4.3,15.6-10.3c-2.3,1.2-4.5,3.4-8.1,3.9c-3.2,0.4-6.3,0-7.8,2.7c-1.2-5.4,1.8-7,6.8-7.3
				c5.5-0.4,8.7-2.7,9.5-8.5c-1.4,0-2.3,2.1-4.4,2.4c-2.5,0.4-4.6-0.7-5.9-2.4c8.6-1.1,11.1-11.5,10.7-21.5c-5,0.4-6,6.5-4.9,11.5
				c-2.1,0.5-2.6-2.6-3.7-3.9c-0.6,0.2,0,1.5-0.5,1.7c-5.1,1.3-7.9,4.6-11.7,7.8c-2.5,2.1-5,4.2-6.6,6.6c2.1,0.8,4.8-3.5,6.6-0.7
				c2.3-1.6,6.5-0.3,5.4,2.9c-1.4-0.8-1.7-1.3-2.7-1.2c-2.3,0.1-1.6,3.2-3.7,3.2s-2.6-3.6-5.9-2c-1.1,0.9-0.9,1.7-2,2.4
				c-2,1.5-5.7,0.7-7.1,2.7c-1.3,1.9,0.2,5.1-2.4,6.1c-0.8,0.2-0.4-0.8-0.5-1.2c-1.7,0.4-3.3,0.9-2.9,3.4c-3.4-0.7-1.4-5.2,1-5.6
				c-1-2.5,3.8-2.9,4.9-4.9c-0.9-0.6-2.8-0.1-4.2-0.2c-0.8,0.4-0.5,1.9-1.7,2c-1.4,0.2-1.4-0.9-2-1.5c-2.1-0.2-3.8,0.1-3.7,2.2
				c-3-2.2,2.2-6,4.1-3.2c0.9-0.3-0.2-1.1,0.5-1.5c1.8-0.8,6,1.2,6.8-1c-1.9-0.2-4.4-2.1-6.8-0.5c-0.5-0.5-1.3-0.8-0.7-1.7
				c-1.5-0.9-3.9-0.3-4.1,0.5c-1.3-2.6,3.6-3.7,4.4-1.5c0.3-0.4,0.4-1.1,1-1.2c3.6,0.4,5.2,2.9,10,2.2c6.5-5.5,12.7-11.2,17.3-18.5
				c-1.8,0.3-6.4,3.1-8.8,1c-0.6-0.6-1-1.7-0.7-2.9c4.3,4.6,9.1-0.8,11-4.4c1.7-3.1,2.7-6.4,5.1-8.5c-8.4-7.8-10.5-21.9-12.5-36.1
				c-1.3,0.5-1.3,2.2-1.7,3.4c-0.6,2.2-0.9,5-2,7.6c-0.6,1.6-2.3,3.2-3.4,5.1c-1.9,3.3-3.5,7-6.3,9.8c-1.9,1.9-6.1,5.1-8.3,5.4
				c-2.4,0.2-3.3-0.7-3.4-1.5c-0.3-1.5,1.8-2.2,2.7-3.4c1.5-2,2.9-5.6,4.4-8.8c2.6-5.6,4.9-12,5.1-19.3c-1.3,0.4-0.5,1.7-1,3.2
				c-1.2,3.7-4,8-6.3,11.7C92,139.1,87,146.1,80,151.4c-4.5,3.4-13.5,8.5-17.8,2.4c2.2-2.1,5-2.9,7.3-4.6
				c6.6-4.9,10.9-12.6,15.6-19.8c-0.2-1.5,0.6-2,1-2.9c-5.7,6-10.7,12.6-18.1,16.8c6.2-5.4,11.7-11.6,16.4-18.5
				c-5.3,3.1-11.9,11.3-20.5,11.2c-2.8,0-5.2-0.8-5.9-3.4c0.9-1.4,2.6-1.2,3.9-1.7c6.1-2.2,10-7.2,14.6-11c0.7-2.1,2.9-2.8,3.4-5.1
				c-2.3,1.2-4.5,3.3-7.1,4.9c-2.6,1.5-5.3,3-8.5,3.7c4.9-2.5,9.2-5.6,12.9-9.3c-5.2,1.1-17.8,6-20.7-2c5.8-0.2,10.8-1.9,14.9-4.4
				c3.2-1.9,6.4-4.6,7.8-7.8c-5.1,4.4-11.8,8.5-21.5,7.6c6.3-1.5,12.2-3.4,16.8-6.6c-7.7,0.3-20.8,1.3-18.1-8.5
				c5.3,3,14.9,0.9,18.1-2.7C67.4,91,59,89.9,55.7,85.8c4.1,1.4,11.7,2.5,18.1,1.7c-4.2-1-10.1-3.5-13.4-6.8c-2-2-5.4-6.3-2-9.3
				c5,4.1,11.6,6.6,20.5,6.8c-1.8-1.7-4.5-1.7-6.6-2.7c-3.2-1.6-6.1-3.9-8.1-6.8c4.4,3.5,10.1,5.7,16.8,6.8
				c-0.7-1.4-2.7-1.9-4.1-2.7c-3.8-2.1-8.6-6.5-9.5-11c-0.5-2.3-0.3-4.7,1.9-5.1C74,61,78.9,66.5,86.7,67c-4.3-1.3-9.1-8.7-4.4-12.9
				C78,63.7,93.2,64.9,96.7,69.7c1.6,2.2,1,4.4-0.5,6.1c-2.3,2.6-6.2,4.3-6.8,8.8c-1.2,8.5,4.4,14.6,12.9,13.9
				c5-0.4,8.9-4.6,14.4-4.1c2.8,0.2,3.8,2.1,7.8,2c2.4-5.1,2.3-15.4,0-20.5c-0.1-0.9,0.3-1.4,0.5-1.9c-3.5,1.7-7.8,2.4-11,4.4
				c1-3.8,4.5-5.1,7.6-6.8c-9-4.1-10.4,9.9-17.8,5.6c8.5,0,7.5-9.4,17.3-8.1c0.4-1.3-1.2-0.6-0.7-2c-2-1.3-4.8,0.2-7.6,0.7
				c-3.2,0.7-6,0.4-6.1,4.4c-4.5-2.9-0.1-8.6,3.7-9c-0.1-0.6-1.5,0-1.7-0.5c1.6-7.8,15.3-3.5,17.1-11.2c2.3,1.2,0.6,3.9-0.7,4.9
				c2.9,0.3,4.1,2.2,6.1,3.4c1.5,0.1,2.6-0.1,3.7-0.5c-0.9,1.9-3,1.6-5.1,1.2c1.6,2.4,3.8,4.2,5.6,6.4c0.8-0.2,2.3,0.3,2.7-0.2
				c0.8,1.8-2.8,1.7-3.9,1.7c2.1,4.9,2.8,11.2,8.1,12.9c-2.8,1.5-4.9-1.8-6.6-2.9c0.1,6,3.1,11.3,7.3,14.2c-1.6,0.5-2.7,0.4-4.4,0
				c-0.7,1.2,0.3,2.7,1,3.4c4.1-1.8,6.2-0.2,10.7,0.2c0.8-1,1.4-2.3,1.7-3.9c-1.4-0.6-3.4,0.9-5.1,0c4.9-2.4,6.8-7.9,8.1-13.9
				c-2.7,0.7-3.6,4.3-7.3,3.2c5-2.1,6.6-7.6,8.1-13.2c-1.4,0-3.5-0.1-4.2-1.5c4.7,0.8,5.8-3.9,8.5-5.9c-1.7-0.6-4.9,0.3-4.9-2
				c4.2,2.8,5.7-2.7,9.8-2.4c-0.9-1.2-2.8-3.4-1-5.1c2,7.4,15.3,3.6,17.3,11c0.2,0.9-1,0.3-1.5,0.5c2.3,1.6,5.8,2.9,5.4,6.6
				c-0.2,1.3-1,1.8-1.7,2.9c-0.4-3.3-2.2-4-5.9-4.6c-2.6-0.5-5.7-2.1-8.1-0.7c0.2,1-0.7,0.7-0.5,1.7c9.3-0.8,8.8,8.2,17.1,8.3
				c-7,4-9.6-9.2-17.6-5.9c0.1,1.3,1.6,1,2.4,1.5c2.1,1.2,4.2,2.8,4.6,5.6c-2.7-1.9-6.6-2.7-10-3.9c-2,5.5-3,15.5-0.5,21.2
				c1.9-0.4,3.9-0.7,5.6-1.2c0.9-0.4,0.1,0.8,0.7,0.7c5.2-1.8,9.9,3,15.4,3.7c8.7,1,15.6-5.2,13.7-14.2c-0.9-4.1-4.3-5.8-6.6-8.3
				c-7.5-8,11.9-10.6,13.9-16.4c0.6-1.6,0.5-4.5-0.7-5.6C212.5,57.1,207.8,66,203.1,67.3z M176.3,63.4c0.4-0.4,1.3-0.3,1.7-0.7
				c-0.4,0.1-1-0.7-1.2,0C177.6,62.9,175.4,63.1,176.3,63.4z M75.4,67.3c0.4-0.8-1.4-1.3-1.7-2.2C73.9,66.3,75.1,66.3,75.4,67.3z
				 M214.1,67.3c0.8-0.8-0.6,1.4,0,0.5c0.5-0.5,2.1-2.2,1.7-1.9C215.2,66.6,213.8,66.9,214.1,67.3z M205.3,72.6
				c-0.1-0.7-0.5-1.1-1.2-1.2C204.2,72.1,204.9,72.2,205.3,72.6z M66.7,80c-0.5-0.6-1.5-2.4-2-1.5C65.7,78.6,65.8,79.7,66.7,80z
				 M223.9,80c0-0.7,1.8-0.8,1-1.5c-0.1,0.5-0.4-0.1-0.5,0.2C225,78.9,222.8,79.5,223.9,80z M212.4,82.7
				C209.1,82.4,210,83.4,212.4,82.7L212.4,82.7z M77.4,87.8c0-0.4,0.6-0.2,0.5-0.7c-0.4,0.1-1.4-0.3-1.5,0.2
				C77.2,87,77,87.7,77.4,87.8z M80.6,90c-0.3-0.7,1.8-0.3,1-0.7c-0.7,0.4-2-0.2-1.7,0.2C80.3,89.4,80.3,89.8,80.6,90z M211.6,95.1
				c1,0,0.4-1.9,0-2C211.6,93.8,211.6,94.4,211.6,95.1z M65,97.8c0.1-0.9-2.2-0.6-2.4-0.2C63.5,97.5,63.9,98,65,97.8z M227,97.8
				c0.9-0.2-2.3-0.6-2.2,0.5C225.9,98.5,226.2,97.9,227,97.8z M143.3,100.7c-0.1,0-0.2,0-0.2,0c-2.4,0.1-4.6,1.3-7.1,1.5
				c-4.4,0.3-9.6-0.1-13.7-0.5c-0.4,14,0.6,26.6,3.9,36.9c14.3-6.5,25.3-19.5,34.4-34.4c0.4-0.6,1.5-1.6,1.2-2.4
				C155.2,103.2,149.1,101.3,143.3,100.7z M83.3,102.9c0.7,0.2-0.5,0.9,0.5,1c-0.1-0.4,0.7-1.2,0-1.5
				C83.7,102.7,83.3,102.6,83.3,102.9z M206.5,103.9c-0.6,0-0.1-0.8,0-1c-0.6,0.3-0.9-0.6-1,0C205.9,103,205.9,104.8,206.5,103.9z
				 M207.3,110.5c-0.7-1.3-2.5-2.8-2-3.9C204.5,107.7,206.2,109.7,207.3,110.5z M165.5,107.1c-8.4,14-15.3,25.6-37.1,37.3
				c1.5,1.7,1.7,4.5,4.2,5.1c1.3,0.4,2.8-0.1,4.2,0c3.1,0.3,5.2,1.7,7.3,2.7c3.1-2.6,8.7-3.1,14.2-2.7
				C163.8,138.7,165.8,123,165.5,107.1z M82.5,110.5c0.6-0.5,2-2.5,1.5-2.4C83.6,108.8,82.2,109.8,82.5,110.5z M90.8,117.1
				c1-2.2,3.3-4.5,3.4-6.8C93.7,112.4,91.2,114.8,90.8,117.1z M199,117.6c0.7-1.7-3.4-4.2-2.4-6.1c-0.5-0.1-0.8-0.5-1.2-0.7
				C196.2,113.2,198.1,115.8,199,117.6z M67.4,112.9c0.8-0.1,2.8-0.3,2.2-1C69.1,112.5,67.8,112.2,67.4,112.9z M222.4,112.9
				c-1.1,0.1-2.3-1.1-3.2-0.5C220.1,112.7,221.5,113.6,222.4,112.9z M109.1,113.2C108.8,116.6,110.1,114.1,109.1,113.2L109.1,113.2z
				 M76.7,124.9c0.3-0.2,1.3-1.1,0.7-1.5c0.1,0.6-0.7,0.3-0.7,0.7C77.5,124.2,75.9,125.5,76.7,124.9z M215.3,126.6
				c0.2,0.8,1.3,1.9,2,1.5c-0.9-0.9-3.6-2.9-4.2-3.7C213.6,125.3,215.2,127.6,215.3,126.6z M72.8,128c1-1,2-1.6,3.2-2.9
				C74.8,125.8,72.8,127,72.8,128z M105.7,131c0.2-0.5,0.5-1,0.7-1.5C105.7,129.3,105.3,130.8,105.7,131z M187.7,137.3
				c-0.6-1-1.3-1.9-2-2.9C185.7,134.9,186.8,137.3,187.7,137.3z M185.8,133.4c-0.9-0.3-0.5-1.4-1.7-2.2
				C184.4,132,185.1,134.5,185.8,133.4z M102.5,137.1c0.7-1.5,2.3-3.5,2.2-4.4c0.2-0.1,0.5,0,0.5-0.2
				C103.5,134.1,102.6,135.7,102.5,137.1z M79.1,144.6c0.7-0.1,1.6-1.3,1.2-1.7C80.1,143.7,79.1,143.7,79.1,144.6z M210.7,144.9
				c-0.4-0.6-0.8-1.3-1.5-1.7C209,143.5,210.1,144.6,210.7,144.9z"/>
			<path fill="#FFFFFF" d="M80.6,86c-0.3-0.4,0.9,0.1,1.5-0.2c0.7,0.4-1.1,0-0.9,0.7C81,86.3,81,86,80.6,86z"/>
			<path fill="#FFFFFF" d="M192.8,98c0.1-0.6,0.4,0.3,0.9,0c-0.1,0.1-0.5,0.8,0,0.9C193.2,99.7,193.2,98.1,192.8,98z"/>
			<path fill="#FFFFFF" d="M192.6,101.3c-0.5,0.9,1.2,2.3,1.7,3.5C193.3,104.1,191.9,102.3,192.6,101.3z"/>
			<path fill="#FFFFFF" d="M84.3,102.6c0.5,0-0.8,1.8-1.3,2.2C82.7,104.2,83.9,103.2,84.3,102.6z"/>
			<path fill="#FFFFFF" d="M93.5,104.5c-0.1,2.1-2.1,4.1-3,6.1C90.7,108.7,92.9,106.5,93.5,104.5z"/>
			<path fill="#FFFFFF" d="M183.6,105c0.4,0.2,0.6,0.5,1.1,0.7c-0.8,1.7,2.8,3.9,2.2,5.5C186.1,109.5,184.4,107.2,183.6,105z"/>
			<path fill="#FFFFFF" d="M77.8,117c0-0.4,0.7-0.1,0.7-0.7c0.5,0.3-0.3,1.1-0.7,1.3C77.1,118.2,78.5,117,77.8,117z"/>
			<path fill="#FFFFFF" d="M199.5,117.2c0.5,0.7,2.9,2.4,3.7,3.3c-0.6,0.4-1.5-0.6-1.7-1.3C201.4,120,199.9,118,199.5,117.2z"/>
			<path fill="#FFFFFF" d="M77.1,117.8c-1,1.2-1.9,1.7-2.8,2.6C74.3,119.5,76.1,118.5,77.1,117.8z"/>
			<path fill="#FFFFFF" d="M175.1,126.1c0.6,0.9,1.2,1.7,1.7,2.6C176.1,128.7,175,126.5,175.1,126.1z"/>
			<path fill="#FFFFFF" d="M103.3,124.4c0,0.2-0.3,0.2-0.4,0.2c0.1,0.8-1.3,2.5-2,3.9C100.9,127.2,101.7,125.9,103.3,124.4z"/>
			<path fill="#FFFFFF" d="M196.1,134c0.6,0.4,0.9,1,1.3,1.5C196.8,135.2,195.8,134.3,196.1,134z"/>
			<g>
				<path fill="#FFFFFF" d="M144,115.2c0,2-0.5,3.8-1.4,5.5c-0.7,1.2-1.5,2.1-2.4,2.6c0,0-0.6,0.1-1.6,0.4c-0.2,0.1-0.6,0.2-1.1,0.3
					H136l-1.5,0.2c-0.9,0.1-2,0.1-3.2-0.1c-0.4-0.1-0.9-0.1-1.5-0.1c-0.5,0-1,0-1.5,0c-0.2-0.6-0.7-0.6-0.2-1.1
					c0.5-0.6,1.4,0.3,1.5,0.3c0.9,0,1.2-0.6,1.2-1.3c0.1-1.6-0.1-3-0.4-4.2c-0.1-0.5-0.2-1-0.2-1.6c0-0.7,0.1-1.7,0.3-3
					s0.3-2.3,0.3-3c0-0.4,0-0.7-0.1-1.1c-0.1-0.5-0.4-0.7-1.1-0.7c0.1,0-2.7-0.2-1.6-1h0.6c0,0-0.1,0-0.2-0.1
					c0.6-0.1,1.3,0.2,2.1,0.2s2-0.3,3.3-0.2l4.2,0.4c1.1,0.1,2.2,0.7,3.3,1.8C143.1,111.2,144,113.1,144,115.2z M139.8,115.9
					c0-0.7-0.1-1.6-0.2-2.8c-0.2-1.4-1.1-2.7-2.9-3.8c-0.9-0.6-0.3-1-1.3-1h-1.1c-0.7,0-1.1,0.3-1.3,0.8c-0.1,0.3-0.2,0.9-0.1,1.7
					c0,0.2,0.1,0.6,0.2,1.1c0.1,0.5,0.2,0.9,0.1,1.2l-0.1,0.5c0,0.6,0,1.7,0,3.1c0.1,1.3,0.1,2.4,0.1,3.1c0,0.2,0,0.4-0.1,0.7
					c0,0.3-0.1,0.6-0.1,0.7c0,0.9,0.7,1.5,2.2,1.7c0.2,0-1.1,0-0.7-0.1c0.4-0.1,0.7-0.2,0.9-0.2s0.6,0,1.1-0.1
					c1.2-0.5,2-1.2,2.4-2.3c0.1-0.2,0.2-0.8,0.6-1.9C139.7,117.7,139.8,116.9,139.8,115.9z"/>
			</g>
			<path fill="#FFFFFF" d="M144.7,259.3C73.2,259.3,15,201.1,15,129.7C15,58.2,73.2,0,144.7,0s129.6,58.2,129.6,129.7
				C274.3,201.1,216.2,259.3,144.7,259.3L144.7,259.3z M144.7,18.2c-61.5,0-111.5,50-111.5,111.5s50,111.5,111.5,111.5
				s111.5-50,111.5-111.5S206.2,18.2,144.7,18.2L144.7,18.2z"/>
			<path fill="#FFFFFF" d="M152.4,135.5l4.1-2l-1.3,4.4l3.8,2.6l-4.5,1.1l-0.3,4.6l-3.2-3.3l-4.1,2l1.3-4.4l-3.8-2.6l4.5-1.1
				l0.3-4.6L152.4,135.5z M150.7,136l-0.1,2.1l-2,0.5l1.7,1.2l-0.6,2l1.9-0.9l1.4,1.5l0.1-2.1l2-0.5l-1.7-1.2l0.6-2l-1.9,0.9
				L150.7,136z"/>
		</g>
	</g>
	<g>
		<g>
			<g>
				<path fill="#FFFFFF" d="M5.2,320.3c0-7.8,0-9.3-0.1-10.9c-0.1-1.7-0.5-2.6-2.2-2.9c-0.4-0.1-1.3-0.2-2-0.2
					c-0.6,0-0.9-0.1-0.9-0.5s0.4-0.5,1.1-0.5c2.7,0,6.8,0.2,8.2,0.2c1.6,0,4.8-0.2,7.9-0.2c6.4,0,15,0,20.6,5.9c2.6,2.7,5,7,5,13.1
					c0,6.5-2.7,11.4-5.6,14.4c-2.4,2.4-7.7,6.1-17.2,6.1c-1.9,0-4-0.2-5.9-0.3c-2-0.2-4.6-0.3-5.9-0.3c-0.6,0-1.7,0-2.9,0
					s-2.5,0.1-3.6,0.1c-0.7,0-1-0.2-1-0.5s0.2-0.4,0.8-0.4c0.8,0,1.4-0.1,1.9-0.2c1-0.2,1.3-1.3,1.5-2.8c0.3-2.2,0.3-6.2,0.3-11
					C5.2,329.4,5.2,320.3,5.2,320.3z M13.9,326c0,5.3,0,9.2,0.1,10.1c0,1.3,0.1,3.3,0.4,3.8c0.5,1,2,2,5.1,2c4,0,6.7-1,9-3.6
					c2.5-2.8,3.3-7.3,3.3-12.5c0-6.4-2.1-10.5-3.8-12.5c-3.6-4.4-8.1-5-11.2-5c-0.8,0-2.2,0.2-2.6,0.4c-0.4,0.2-0.5,0.5-0.5,1
					c0,1.7,0,6.1,0,10v6.3H13.9z"/>
				<path fill="#FFFFFF" d="M47.3,320.3c0-7.8,0-9.3-0.1-10.9c-0.1-1.7-0.6-2.6-1.8-2.9c-0.6-0.2-1.2-0.2-1.9-0.2
					c-0.5,0-0.8-0.1-0.8-0.5c0-0.3,0.4-0.4,1.2-0.4c2,0,5.2,0.2,6.7,0.2c1.3,0,6.8-0.2,8.8-0.2c0.7,0,1.1,0.1,1.1,0.4
					c0,0.4-0.3,0.5-0.8,0.5s-0.9,0-1.5,0.2c-1.4,0.3-1.8,1.1-1.9,2.9c-0.1,1.7-0.1,3.1-0.1,10.9v9.1c0,5,0,9.1,0.2,11.3
					c0.2,1.4,0.5,2.3,2.1,2.5c0.7,0.1,1.9,0.2,2.6,0.2c0.6,0,0.8,0.2,0.8,0.4c0,0.4-0.4,0.5-1,0.5c-3.4,0-9.1-0.2-10.5-0.2
					c-1.2,0-4.4,0.2-6.5,0.2c-0.7,0-1-0.2-1-0.5s0.2-0.4,0.8-0.4c0.8,0,1.4-0.1,1.8-0.2c1-0.2,1.3-1.1,1.5-2.6
					c0.3-2.2,0.3-6.2,0.3-11.2C47.3,329.4,47.3,320.3,47.3,320.3z"/>
				<path fill="#FFFFFF" d="M68.7,339.4c-5-4.4-6.4-10.2-6.4-15.2c0-3.5,1.1-9.6,6-14.1c3.7-3.4,8.6-5.5,16.3-5.5
					c3.2,0,5.1,0.2,7.5,0.5c2,0.3,3.6,0.7,5.1,0.9c0.6,0.1,0.8,0.3,0.8,0.6c0,0.4-0.2,1-0.3,2.8c-0.1,1.7,0,4.5-0.1,5.6
					c-0.1,0.8-0.2,1.2-0.6,1.2s-0.5-0.4-0.5-1.1c0-1.6-0.7-3.4-2-4.7c-1.7-1.8-2.9-3.2-7.6-3.2c-4.5,0-7.4,1.1-9.7,3.2
					c-3.8,3.5-4.7,8.3-4.7,13.3c0,12.2,9.3,18.3,16.2,18.3c4.6,0,4.5-0.5,6.6-2.9c0.9-1,1.5-2.5,1.7-3.4c0.2-0.8,0.3-1,0.7-1
					c0.4,0,0.5,0.4,0.5,0.8c0,0.6-0.6,5.1-1.1,6.9c-0.3,0.9-0.5,1.1-1.3,1.5c-2.1,0.8-6,1.2-9.3,1.2C79.3,345,73.4,343.5,68.7,339.4
					z"/>
				<path fill="#FFFFFF" d="M100.4,324.8c0-8.8,5.8-20.2,21.3-20.2c12.8,0,20.8,7.5,20.8,19.2c0,11.8-8.2,21.1-21.3,21.1
					C106.4,345,100.4,334,100.4,324.8z M132.6,322.5c-3.4-11-10.6-16.3-17.3-14.3c-4.6,1.4-9,6.2-5.3,18.4c3.1,10.2,10.2,17,18,14.6
					C130.9,340.4,136.9,336.7,132.6,322.5z"/>
				<path fill="#FFFFFF" d="M222.7,324.8c0-8.8,5.8-20.2,21.3-20.2c12.8,0,20.8,7.5,20.8,19.2c0,11.8-8.2,21.1-21.3,21.1
					C228.7,345,222.7,334,222.7,324.8z M254.8,322.5c-3.3-11-10.6-16.3-17.3-14.3c-4.6,1.4-9,6.2-5.2,18.4c3.1,10.2,10.2,17,18,14.6
					C253.1,340.4,259.2,336.7,254.8,322.5z"/>
				<path fill="#FFFFFF" d="M148.6,320.3c0-7.8,0-9.3-0.1-10.9c-0.1-1.7-0.5-2.6-2.2-2.9c-0.4-0.1-1.3-0.2-2-0.2
					c-0.6,0-0.9-0.1-0.9-0.5s0.4-0.5,1.1-0.5c2.7,0,8.5,0.2,9.6,0.2c1.7,0,5.7-0.2,7.3-0.2c3.2,0,6.7,0.3,9.5,2.2
					c1.4,1,3.5,3.6,3.5,7.1c0,3.8-1.6,7.3-6.8,11.5c4.6,5.8,15.6,18.4,18.6,21.6c2.9,3,5,3.3,5.8,3.5c0.6,0.1,1,0.2,1.4,0.2
					s0.6,0.2,0.6,0.4c0,0.4-0.4,0.5-1,0.5h-4.9c-2.9,0-7-0.3-8.4-1c-2.2-1.2-11.6-11.7-14.5-15.7c-2.1-2.8-4.4-6.3-5.1-7.1
					c-0.3-0.3-0.6-0.4-0.9-0.4l-1.6-0.1c-0.3,0-0.4,0.1-0.4,0.4v0.7c0,4.8,0,8.9,0.3,11c0.2,1.5,0.5,2.6,2,2.8
					c0.8,0.1,1.9,0.2,2.5,0.2c0.4,0,0.6,0.2,0.6,0.4c0,0.4-0.4,0.5-1,0.5c-3,0-6.8-0.2-7.6-0.2c-1,0-6.7,0.2-8.8,0.2
					c-0.7,0-1-0.2-1-0.5s0.2-0.4,0.8-0.4c0.8,0,1.4-0.1,1.9-0.2c1-0.2,1.3-1.3,1.5-2.8c0.3-2.2,0.3-6.2,0.3-11v-8.8H148.6z
					 M157.1,324.4c0,0.6,0.1,0.8,0.4,0.9c0.8,0.4,2,0.5,3,0.5c1.6,0,2.1-0.2,2.8-0.9c1.2-1.1,2.3-3.5,2.3-7.7c0-7.3-3.7-9.4-6-9.4
					c-1,0-1.7,0.1-2.1,0.2c-0.3,0.1-0.4,0.3-0.4,0.7V324.4z"/>
				<path fill="#FFFFFF" d="M224.4,343.4c-0.7,0-1.7,0-3.2-0.5s-2.1-2-2.5-5.2l-4.7-31.8c-0.1-1.1-0.5-1.6-0.9-1.6
					c-0.5,0-0.7,0.4-1.1,1.2l-12.5,26.2c0,0-12.5-25.3-13.1-26.3c-1.1-2-4.4-2.2-4.7,0.2l-4.2,27.4l3.2,3.7l2.4-18.1h0.2
					c1.8,3.9,4.9,10.3,5.4,11.4c0.6,1.4,4.7,9.3,5.9,11.7c0.8,1.5,1.3,2.6,1.8,2.6s0.7-0.5,1.9-2.9l9.7-20.3h0.2l2.6,19.5
					c0.2,1.4,0.1,2.1-0.3,2.2c-0.4,0.2-0.6,0.3-0.6,0.6c0,0.3,0.3,0.5,1.5,0.6c2.1,0.1,11.2,0.3,12.5,0.3c0.7,0,1.3-0.2,1.3-0.6
					C225.2,343.4,224.8,343.4,224.4,343.4z"/>
			</g>
		</g>
		<g>
			<path fill="#FFFFFF" d="M9.3,284.4c0-3.1,0-3.6,0-4.3c0-0.7-0.2-1-0.7-1.1c-0.2-0.1-0.5-0.1-0.7-0.1s-0.3,0-0.3-0.2
				c0-0.1,0.2-0.2,0.5-0.2c0.8,0,2,0.1,2.6,0.1c0.5,0,1.7-0.1,2.5-0.1c0.3,0,0.4,0,0.4,0.2s-0.1,0.2-0.3,0.2s-0.4,0-0.6,0.1
				c-0.5,0.1-0.7,0.4-0.7,1.1c0,0.6,0,1.2,0,4.3v3.5c0,2,0,3.5,0.1,4.4c0.1,0.5,0.2,0.9,0.8,1c0.3,0,0.7,0.1,1,0.1
				c0.2,0,0.3,0.1,0.3,0.2s-0.2,0.2-0.4,0.2c-1.3,0-2.6-0.1-3.1-0.1s-1.7,0.1-2.5,0.1c-0.3,0-0.4-0.1-0.4-0.2s0.1-0.2,0.3-0.2
				c0.3,0,0.5,0,0.7-0.1c0.4-0.1,0.5-0.4,0.6-1c0.1-0.8,0.1-2.4,0.1-4.4v-3.5H9.3z"/>
			<path fill="#FFFFFF" d="M35.6,291c0,1.6,0.3,2.1,0.7,2.2c0.3,0.1,0.7,0.1,1,0.1c0.2,0,0.3,0,0.3,0.2s-0.2,0.2-0.5,0.2
				c-1.3,0-2.1-0.1-2.5-0.1c-0.2,0-1.1,0.1-2.2,0.1c-0.3,0-0.4,0-0.4-0.2c0-0.1,0.1-0.2,0.3-0.2c0.3,0,0.6,0,0.9-0.1
				c0.5-0.2,0.6-0.7,0.6-2.5l0.2-11.9c0-0.4,0.1-0.7,0.3-0.7s0.4,0.3,0.7,0.6c0.2,0.3,3.3,3.5,6.2,6.5c1.4,1.4,4.1,4.3,4.4,4.6h0.1
				l-0.2-9c0-1.2-0.2-1.6-0.7-1.8c-0.3-0.1-0.8-0.1-1.1-0.1c-0.2,0-0.3-0.1-0.3-0.2c0-0.2,0.2-0.2,0.5-0.2c1,0,2,0.1,2.4,0.1
				c0.2,0,1-0.1,2-0.1c0.3,0,0.5,0,0.5,0.2c0,0.1-0.1,0.2-0.4,0.2c-0.2,0-0.4,0-0.6,0.1c-0.6,0.2-0.7,0.6-0.7,1.7l-0.2,12.7
				c0,0.4-0.1,0.6-0.3,0.6s-0.5-0.2-0.7-0.4c-1.3-1.2-3.8-3.8-5.9-5.9c-2.2-2.2-4.4-4.7-4.8-5.1h-0.1L35.6,291z"/>
			<path fill="#FFFFFF" d="M68.5,293.5c-0.3-0.1-0.4-0.2-0.4-0.7c0-1.1,0.1-2.3,0.1-2.6c0-0.3,0.1-0.5,0.2-0.5
				c0.2,0,0.2,0.2,0.2,0.3c0,0.3,0.1,0.7,0.2,1c0.4,1.5,1.6,2,2.9,2c1.8,0,2.7-1.2,2.7-2.3c0-1-0.3-1.9-2-3.2l-0.9-0.7
				c-2.2-1.7-3-3.1-3-4.8c0-2.2,1.9-3.8,4.6-3.8c1.3,0,2.2,0.2,2.7,0.3c0.2,0,0.3,0.1,0.3,0.2c0,0.3-0.1,0.8-0.1,2.4
				c0,0.4-0.1,0.6-0.2,0.6s-0.2-0.1-0.2-0.4c0-0.2-0.1-0.8-0.5-1.3c-0.3-0.4-0.9-1-2.2-1c-1.5,0-2.4,0.9-2.4,2.1
				c0,0.9,0.5,1.6,2.1,2.9l0.6,0.4c2.4,1.8,3.3,3.2,3.3,5.1c0,1.2-0.4,2.6-1.9,3.5c-1,0.6-2.1,0.8-3.2,0.8
				C70.3,294,69.4,293.9,68.5,293.5z"/>
			<path fill="#FFFFFF" d="M100.1,279.7l-3,0.1c-1.2,0-1.6,0.1-1.9,0.6c-0.2,0.3-0.3,0.5-0.3,0.7s-0.1,0.2-0.2,0.2s-0.2-0.1-0.2-0.3
				c0-0.3,0.4-2.2,0.4-2.3c0.1-0.3,0.1-0.4,0.2-0.4c0.2,0,0.4,0.2,0.9,0.2c0.6,0.1,1.3,0.1,2,0.1h8c0.6,0,1.1-0.1,1.4-0.1
				c0.3-0.1,0.5-0.1,0.5-0.1c0.1,0,0.2,0.1,0.2,0.4c0,0.4-0.1,1.8-0.1,2.3c0,0.2-0.1,0.3-0.2,0.3c-0.2,0-0.2-0.1-0.2-0.4v-0.2
				c0-0.5-0.6-1.1-2.4-1.1l-2.5-0.1v8.3c0,1.8,0,3.4,0.1,4.3c0.1,0.6,0.2,1,0.8,1.1c0.3,0,0.7,0.1,1,0.1c0.2,0,0.3,0.1,0.3,0.2
				s-0.2,0.2-0.4,0.2c-1.3,0-2.6-0.1-3.2-0.1c-0.5,0-1.7,0.1-2.5,0.1c-0.3,0-0.4-0.1-0.4-0.2s0.1-0.2,0.3-0.2c0.3,0,0.5,0,0.7-0.1
				c0.4-0.1,0.5-0.5,0.6-1.1c0.1-0.8,0.1-2.4,0.1-4.3C100.1,287.9,100.1,279.7,100.1,279.7z"/>
			<path fill="#FFFFFF" d="M127.8,284.4c0-3.1,0-3.6,0-4.3c0-0.7-0.2-1-0.7-1.1c-0.2-0.1-0.5-0.1-0.7-0.1s-0.3,0-0.3-0.2
				c0-0.1,0.2-0.2,0.5-0.2c0.8,0,2,0.1,2.6,0.1c0.5,0,1.7-0.1,2.5-0.1c0.3,0,0.4,0,0.4,0.2s-0.1,0.2-0.3,0.2s-0.4,0-0.6,0.1
				c-0.5,0.1-0.7,0.4-0.7,1.1c0,0.6,0,1.2,0,4.3v3.5c0,2,0,3.5,0.1,4.4c0.1,0.5,0.2,0.9,0.8,1c0.3,0,0.7,0.1,1,0.1
				c0.2,0,0.3,0.1,0.3,0.2s-0.2,0.2-0.4,0.2c-1.3,0-2.6-0.1-3.1-0.1s-1.7,0.1-2.5,0.1c-0.3,0-0.4-0.1-0.4-0.2s0.1-0.2,0.3-0.2
				c0.3,0,0.5,0,0.7-0.1c0.4-0.1,0.5-0.4,0.6-1c0.1-0.8,0.1-2.4,0.1-4.4v-3.5H127.8z"/>
			<path fill="#FFFFFF" d="M155.7,279.7l-3,0.1c-1.2,0-1.7,0.1-2,0.6c-0.2,0.3-0.3,0.5-0.3,0.7s-0.1,0.2-0.2,0.2
				c-0.1,0-0.2-0.1-0.2-0.3c0-0.3,0.4-2.2,0.4-2.3c0.1-0.3,0.1-0.4,0.2-0.4c0.2,0,0.4,0.2,0.9,0.2c0.6,0.1,1.3,0.1,2,0.1h8
				c0.6,0,1.1-0.1,1.4-0.1c0.3-0.1,0.5-0.1,0.5-0.1c0.1,0,0.2,0.1,0.2,0.4c0,0.4-0.1,1.8-0.1,2.3c0,0.2-0.1,0.3-0.2,0.3
				c-0.2,0-0.2-0.1-0.2-0.4v-0.2c0-0.5-0.6-1.1-2.4-1.1l-2.5-0.1v8.3c0,1.8,0,3.4,0.1,4.3c0.1,0.6,0.2,1,0.8,1.1
				c0.3,0,0.7,0.1,1,0.1c0.2,0,0.3,0.1,0.3,0.2s-0.2,0.2-0.4,0.2c-1.3,0-2.6-0.1-3.2-0.1c-0.5,0-1.7,0.1-2.5,0.1
				c-0.3,0-0.4-0.1-0.4-0.2s0.1-0.2,0.3-0.2c0.3,0,0.5,0,0.7-0.1c0.4-0.1,0.5-0.5,0.6-1.1c0.1-0.8,0.1-2.4,0.1-4.3L155.7,279.7
				L155.7,279.7z"/>
			<path fill="#FFFFFF" d="M182.6,284.4c0-3.1,0-3.6,0-4.3c0-0.7-0.2-1-0.9-1.1c-0.2,0-0.5-0.1-0.8-0.1c-0.2,0-0.3,0-0.3-0.2
				c0-0.1,0.1-0.2,0.4-0.2c1.1,0,2.3,0.1,2.9,0.1c0.5,0,1.7-0.1,2.5-0.1c0.3,0,0.4,0,0.4,0.2c0,0.1-0.1,0.2-0.3,0.2s-0.3,0-0.6,0.1
				c-0.5,0.1-0.7,0.4-0.7,1.1c0,0.6,0,1.2,0,4.3v2.8c0,2.9,0.6,4.1,1.6,5c0.9,0.7,1.8,0.8,2.5,0.8c0.9,0,2-0.3,2.8-1.1
				c1.1-1.1,1.2-2.9,1.2-5v-2.5c0-3.1,0-3.6,0-4.3c0-0.7-0.2-1-0.9-1.1c-0.2,0-0.5-0.1-0.7-0.1s-0.3,0-0.3-0.2
				c0-0.1,0.1-0.2,0.4-0.2c1,0,2.3,0.1,2.3,0.1c0.2,0,1.5-0.1,2.3-0.1c0.3,0,0.4,0,0.4,0.2c0,0.1-0.1,0.2-0.4,0.2
				c-0.2,0-0.3,0-0.6,0.1c-0.5,0.1-0.7,0.4-0.7,1.1c0,0.6,0,1.2,0,4.3v2.2c0,2.2-0.2,4.6-1.9,6.1c-1.4,1.2-2.9,1.4-4.2,1.4
				c-1.1,0-3-0.1-4.5-1.4c-1-0.9-1.8-2.4-1.8-5.3L182.6,284.4L182.6,284.4z"/>
			<path fill="#FFFFFF" d="M219.4,279.7l-3,0.1c-1.2,0-1.6,0.1-2,0.6c-0.2,0.3-0.3,0.5-0.3,0.7s-0.1,0.2-0.2,0.2
				c-0.1,0-0.2-0.1-0.2-0.3c0-0.3,0.4-2.2,0.4-2.3c0.1-0.3,0.1-0.4,0.2-0.4c0.2,0,0.4,0.2,0.9,0.2c0.6,0.1,1.3,0.1,2,0.1h8
				c0.6,0,1.1-0.1,1.4-0.1c0.3-0.1,0.5-0.1,0.5-0.1c0.1,0,0.2,0.1,0.2,0.4c0,0.4-0.1,1.8-0.1,2.3c0,0.2-0.1,0.3-0.2,0.3
				c-0.2,0-0.2-0.1-0.2-0.4v-0.2c0-0.5-0.6-1.1-2.4-1.1l-2.5-0.1v8.3c0,1.8,0,3.4,0.1,4.3c0.1,0.6,0.2,1,0.8,1.1
				c0.3,0,0.7,0.1,1,0.1c0.2,0,0.3,0.1,0.3,0.2s-0.2,0.2-0.4,0.2c-1.3,0-2.6-0.1-3.2-0.1c-0.5,0-1.7,0.1-2.5,0.1
				c-0.3,0-0.4-0.1-0.4-0.2s0.1-0.2,0.3-0.2c0.3,0,0.5,0,0.7-0.1c0.4-0.1,0.5-0.5,0.6-1.1c0.1-0.8,0.1-2.4,0.1-4.3L219.4,279.7
				L219.4,279.7z"/>
			<path fill="#FFFFFF" d="M244.7,286.1c0-3.4,2.3-7.9,8.3-7.9c5,0,8.1,2.9,8.1,7.5s-3.2,8.3-8.3,8.3
				C247,294,244.7,289.7,244.7,286.1z M258.3,286.5c0-4.5-2.6-7.3-5.9-7.3c-2.3,0-5,1.3-5,6.3c0,4.2,2.3,7.5,6.2,7.5
				C255,293,258.3,292.3,258.3,286.5z"/>
		</g>
		<g>
			<path fill="#FFFFFF" d="M269.1,305.7c0-0.8-0.1-1.7-0.1-2.4l0,0c-0.2,0.6-0.4,1.3-0.7,2.1l-1,2.7h-0.5l-0.9-2.6
				c-0.3-0.8-0.5-1.5-0.6-2.2l0,0c0,0.7-0.1,1.6-0.1,2.4l-0.1,2.4h-0.7l0.4-5.5h0.9l0.9,2.7c0.2,0.7,0.4,1.3,0.6,1.9l0,0
				c0.1-0.6,0.3-1.2,0.6-1.9l1-2.7h0.9l0.3,5.5h-0.7L269.1,305.7z"/>
			<path fill="#FFFFFF" d="M271,302.7c0.4-0.1,0.9-0.1,1.4-0.1c0.8,0,1.3,0.1,1.6,0.5c0.3,0.2,0.4,0.6,0.4,1.1c0,0.7-0.5,1.2-1,1.4
				l0,0c0.4,0.1,0.7,0.5,0.8,1.1c0.2,0.8,0.3,1.3,0.4,1.5h-0.7c-0.1-0.2-0.2-0.6-0.4-1.3c-0.2-0.8-0.5-1.1-1.1-1.1h-0.7v2.4H271
				V302.7z M271.7,305.2h0.7c0.8,0,1.2-0.4,1.2-1.1s-0.5-1-1.3-1c-0.3,0-0.6,0-0.7,0.1L271.7,305.2L271.7,305.2z"/>
			<path fill="#FFFFFF" d="M275.2,307.7c0-0.3,0.2-0.5,0.5-0.5s0.5,0.2,0.5,0.5s-0.2,0.5-0.5,0.5C275.4,308.2,275.2,308,275.2,307.7
				z"/>
		</g>
	</g>
	<g>
		<path fill="#FFFFFF" d="M31.3,370.9c-0.5,0.3-1.6,0.5-3,0.5c-3.2,0-5.5-2-5.5-5.7c0-3.5,2.4-5.9,5.8-5.9c1.4,0,2.3,0.3,2.7,0.5
			l-0.3,1.2c-0.5-0.3-1.3-0.5-2.3-0.5c-2.6,0-4.4,1.7-4.4,4.6c0,2.7,1.6,4.5,4.3,4.5c0.9,0,1.8-0.2,2.4-0.5L31.3,370.9z"/>
		<path fill="#FFFFFF" d="M38.9,366h-4.3v4h4.8v1.2h-6.3V360h6v1.2h-4.6v3.5h4.3L38.9,366L38.9,366z"/>
		<path fill="#FFFFFF" d="M41.2,371.3v-11.2h1.6l3.6,5.7c0.8,1.3,1.5,2.5,2,3.6l0,0c-0.1-1.5-0.2-2.9-0.2-4.6v-4.7h1.4v11.2h-1.5
			l-3.6-5.7c-0.8-1.2-1.5-2.5-2.1-3.7l0,0c0.1,1.4,0.1,2.8,0.1,4.6v4.8L41.2,371.3L41.2,371.3z"/>
		<path fill="#FFFFFF" d="M54.3,361.3h-3.4v-1.2h8.3v1.2h-3.4v10h-1.5C54.3,371.3,54.3,361.3,54.3,361.3z"/>
		<path fill="#FFFFFF" d="M60.4,360.2c0.7-0.1,1.8-0.2,2.8-0.2c1.5,0,2.5,0.3,3.2,0.9c0.6,0.5,0.9,1.3,0.9,2.1
			c0,1.5-0.9,2.5-2.1,2.9l0,0c0.9,0.3,1.4,1.1,1.6,2.3c0.4,1.6,0.6,2.6,0.9,3.1h-1.5c-0.2-0.3-0.4-1.3-0.7-2.7
			c-0.3-1.5-0.9-2.1-2.2-2.2h-1.4v4.8h-1.4v-11H60.4z M61.8,365.3h1.5c1.5,0,2.5-0.8,2.5-2.1c0-1.4-1-2.1-2.6-2.1
			c-0.7,0-1.2,0.1-1.4,0.1C61.8,361.2,61.8,365.3,61.8,365.3z"/>
		<path fill="#FFFFFF" d="M78.9,365.5c0,3.9-2.3,5.9-5.2,5.9c-3,0-5-2.3-5-5.7c0-3.6,2.2-5.9,5.2-5.9
			C77,359.9,78.9,362.2,78.9,365.5z M70.3,365.7c0,2.4,1.3,4.5,3.6,4.5c2.3,0,3.6-2.1,3.6-4.6c0-2.2-1.2-4.5-3.6-4.5
			S70.3,363.3,70.3,365.7z"/>
		<path fill="#FFFFFF" d="M90.1,366h-4.3v4h4.8v1.2h-6.3V360h6v1.2h-4.6v3.5H90L90.1,366L90.1,366z"/>
		<path fill="#FFFFFF" d="M92.5,360.2c0.9-0.1,1.9-0.2,3.1-0.2c2.1,0,3.6,0.5,4.5,1.4c1,0.9,1.6,2.2,1.6,4s-0.6,3.3-1.6,4.3
			s-2.8,1.6-4.9,1.6c-1,0-1.9,0-2.6-0.1L92.5,360.2L92.5,360.2z M94,370.1c0.4,0.1,0.9,0.1,1.5,0.1c3.1,0,4.8-1.7,4.8-4.7
			c0-2.6-1.5-4.3-4.5-4.3c-0.7,0-1.3,0.1-1.7,0.1v8.8H94z"/>
		<path fill="#FFFFFF" d="M105,360.1v6.6c0,2.5,1.1,3.6,2.6,3.6c1.7,0,2.7-1.1,2.7-3.6v-6.6h1.5v6.5c0,3.4-1.8,4.8-4.2,4.8
			c-2.3,0-4-1.3-4-4.8V360h1.4V360.1z"/>
		<path fill="#FFFFFF" d="M122.1,370.9c-0.5,0.3-1.6,0.5-3,0.5c-3.2,0-5.5-2-5.5-5.7c0-3.5,2.4-5.9,5.8-5.9c1.4,0,2.3,0.3,2.7,0.5
			l-0.3,1.2c-0.5-0.3-1.3-0.5-2.3-0.5c-2.6,0-4.4,1.7-4.4,4.6c0,2.7,1.6,4.5,4.3,4.5c0.9,0,1.8-0.2,2.4-0.5L122.1,370.9z"/>
		<path fill="#FFFFFF" d="M125.8,367.7l-1.2,3.5h-1.5l3.8-11.2h1.7l3.8,11.2H131l-1.2-3.5H125.8z M129.5,366.6l-1.1-3.2
			c-0.2-0.7-0.4-1.4-0.6-2l0,0c-0.2,0.7-0.3,1.3-0.6,2l-1.1,3.2H129.5z"/>
		<path fill="#FFFFFF" d="M135,361.3h-3.4v-1.2h8.3v1.2h-3.4v10H135V361.3z"/>
		<path fill="#FFFFFF" d="M142.6,360.1v11.2h-1.4v-11.2H142.6z"/>
		<path fill="#FFFFFF" d="M147.5,371.3l-3.7-11.2h1.6l1.7,5.5c0.5,1.5,0.9,2.9,1.2,4.2l0,0c0.3-1.3,0.8-2.7,1.3-4.2l1.9-5.5h1.5
			l-4,11.2H147.5z"/>
		<path fill="#FFFFFF" d="M163.9,365.5c0,3.9-2.3,5.9-5.2,5.9c-3,0-5-2.3-5-5.7c0-3.6,2.2-5.9,5.2-5.9
			C161.9,359.9,163.9,362.2,163.9,365.5z M155.2,365.7c0,2.4,1.3,4.5,3.6,4.5s3.6-2.1,3.6-4.6c0-2.2-1.2-4.5-3.6-4.5
			S155.2,363.3,155.2,365.7z"/>
		<path fill="#FFFFFF" d="M169.3,360.2c0.9-0.1,1.9-0.2,3.1-0.2c2.1,0,3.6,0.5,4.5,1.4c1,0.9,1.6,2.2,1.6,4s-0.6,3.3-1.6,4.3
			s-2.8,1.6-4.9,1.6c-1,0-1.9,0-2.6-0.1v-11H169.3z M170.8,370.1c0.4,0.1,0.9,0.1,1.5,0.1c3.1,0,4.8-1.7,4.8-4.7
			c0-2.6-1.5-4.3-4.5-4.3c-0.7,0-1.3,0.1-1.7,0.1v8.8H170.8z"/>
		<path fill="#FFFFFF" d="M186.2,366h-4.3v4h4.8v1.2h-6.3V360h6v1.2h-4.6v3.5h4.3v1.3H186.2z"/>
		<path fill="#FFFFFF" d="M192.1,360.2c0.9-0.1,1.9-0.2,3.1-0.2c2.1,0,3.6,0.5,4.5,1.4c1,0.9,1.6,2.2,1.6,4s-0.6,3.3-1.6,4.3
			s-2.8,1.6-4.9,1.6c-1,0-1.9,0-2.6-0.1v-11H192.1z M193.5,370.1c0.4,0.1,0.9,0.1,1.5,0.1c3.1,0,4.8-1.7,4.8-4.7
			c0-2.6-1.5-4.3-4.5-4.3c-0.7,0-1.3,0.1-1.7,0.1v8.8H193.5z"/>
		<path fill="#FFFFFF" d="M204.6,360.1v11.2h-1.4v-11.2H204.6z"/>
		<path fill="#FFFFFF" d="M206.9,369.5c0.6,0.4,1.6,0.7,2.6,0.7c1.5,0,2.3-0.8,2.3-1.9c0-1-0.6-1.6-2.1-2.2c-1.8-0.6-3-1.6-3-3.2
			c0-1.7,1.4-3,3.6-3c1.1,0,2,0.3,2.5,0.5l-0.4,1.2c-0.4-0.2-1.1-0.5-2.1-0.5c-1.5,0-2.1,0.9-2.1,1.7c0,1,0.7,1.6,2.2,2.2
			c1.9,0.7,2.9,1.6,2.9,3.3c0,1.7-1.3,3.2-3.9,3.2c-1.1,0-2.3-0.3-2.9-0.7L206.9,369.5z"/>
		<path fill="#FFFFFF" d="M221.1,366h-4.3v4h4.8v1.2h-6.3V360h6v1.2h-4.6v3.5h4.3v1.3H221.1z"/>
		<path fill="#FFFFFF" d="M223.4,371.3v-11.2h1.6l3.6,5.7c0.8,1.3,1.5,2.5,2,3.6l0,0c-0.1-1.5-0.2-2.9-0.2-4.6v-4.7h1.4v11.2h-1.5
			l-3.6-5.7c-0.8-1.2-1.5-2.5-2.1-3.7l0,0c0.1,1.4,0.1,2.8,0.1,4.6v4.8L223.4,371.3L223.4,371.3z M225.6,359.4c0-1,0.4-1.7,1.1-1.7
			c0.4,0,0.6,0.1,1,0.3c0.3,0.1,0.5,0.3,0.8,0.3c0.2,0,0.4-0.1,0.4-0.6h0.8c0,1-0.3,1.6-1.1,1.6c-0.3,0-0.6-0.1-1-0.3
			c-0.3-0.2-0.5-0.3-0.8-0.3s-0.4,0.3-0.4,0.7H225.6z"/>
		<path fill="#FFFFFF" d="M243.9,365.5c0,3.9-2.3,5.9-5.2,5.9c-3,0-5-2.3-5-5.7c0-3.6,2.2-5.9,5.2-5.9
			C241.9,359.9,243.9,362.2,243.9,365.5z M235.2,365.7c0,2.4,1.3,4.5,3.6,4.5s3.6-2.1,3.6-4.6c0-2.2-1.2-4.5-3.6-4.5
			S235.2,363.3,235.2,365.7z"/>
	</g>
</g>
</svg>
